<svg height="50" viewBox="0 0 180 50" width="180" xmlns="http://www.w3.org/2000/svg" xmlns:xlink="http://www.w3.org/1999/xlink"><linearGradient id="a" x1="0%" x2="100%" y1="0%" y2="100%"><stop offset="0" stop-color="#a890fb"/><stop offset="1" stop-color="#5d78f5"/></linearGradient><g fill="none" fill-rule="evenodd" transform=""><path d="m83 0h94c1.656854 0 3 1.34314575 3 3v44c0 1.6568542-1.343146 3-3 3h-94c-1.6568542 0-3-1.3431458-3-3v-44c0-1.65685425 1.3431458-3 3-3zm11.3029091 15.0045455v19.0863636h5.0505454v-19.0863636zm9.2789089 0v19.0863636h4.815637v-5.5203636c0-1.1745514-.078303-2.4078118-.23491-3.6998182-.156606-1.2920065-.293635-2.4861158-.41109-3.5823637h.117454l1.820546 4.2577273 4.228363 8.5448182h5.168v-19.0863636h-4.815636v5.5203636c0 .5872757.024469 1.199012.073409 1.8352273s.102772 1.272421.1615 1.9086363c.058727.6362153.127242 1.2577394.205545 1.8645909.078304.6068516.146818 1.1647551.205546 1.6737273h-.117455l-1.820545-4.2870909-4.228364-8.5154545zm23.373455 4.2283636v14.858h5.050545v-14.858h5.050546v-4.2283636h-15.151637v4.2283636zm12.92-4.2283636v19.0863636h12.626363v-4.2283636h-7.575818v-3.4061819h6.225091v-4.2283636h-6.225091v-2.9950909h7.282182v-4.2283636zm16.326182 0v19.0863636h12.274v-4.2283636h-7.223455v-14.858z" fill="url(#a)"/><path d="m9.74254545 35.408c-1.40534036 0-2.69166083-.2719973-3.859-.816s-2.17032914-1.3203283-3.009-2.329-1.49033101-2.2326595-1.95499999-3.672c-.46466899-1.4393405-.697-3.0543244-.697-4.845s.23233101-3.3943263.697-4.811c.46466898-1.4166738 1.11632913-2.6179951 1.95499999-3.604s1.84166083-1.7396641 3.009-2.261 2.45365964-.782 3.859-.782c1.40534035 0 2.69166085.2663307 3.85900005.799 1.1673391.5326693 2.1759957 1.2919951 3.026 2.278.8500042.9860049 1.507331 2.1873263 1.972 3.604.4646689 1.4166737.697 3.0089912.697 4.777 0 1.7906756-.2323311 3.4056595-.697 4.845-.464669 1.4393405-1.1219958 2.6633283-1.972 3.672-.8500043 1.0086717-1.8586609 1.7849973-3.026 2.329-1.1673392.5440027-2.4536597.816-3.85900005.816zm0-2.482c.99733835 0 1.89832935-.2153312 2.70300005-.646.8046706-.4306688 1.4959971-1.0483293 2.074-1.853.5780028-.8046707 1.025665-1.7679944 1.343-2.89.3173349-1.1220056.476-2.3856596.476-3.791 0-1.3826736-.1586651-2.6293278-.476-3.74-.317335-1.1106722-.7649972-2.0513295-1.343-2.822-.5780029-.7706705-1.2693294-1.3656646-2.074-1.785-.8046707-.4193354-1.7056617-.629-2.70300005-.629-.99733832 0-1.89832931.2096646-2.703.629s-1.49599711 1.0143295-2.074 1.785-1.02566508 1.7113278-1.343 2.822-.476 2.3573264-.476 3.74c0 1.4053404.15866508 2.6689944.476 3.791s.76499711 2.0853293 1.343 2.89 1.26932931 1.4223312 2.074 1.853 1.70566168.646 2.703.646zm16.86400005 3.468v5.576h-2.788v-23.494h2.312l.238 1.904h.102c.7480037-.6346698 1.5696621-1.1786644 2.465-1.632.8953378-.4533356 1.8303284-.68 2.805-.68 1.0653386 0 2.0059959.1983314 2.822.595.816004.3966686 1.4959972.9633296 2.04 1.7.5440027.7366703.9576652 1.6206615 1.241 2.652.2833347 1.0313385.425 2.1929935.425 3.485 0 1.4053404-.1926648 2.6576612-.578 3.757-.3853353 1.0993388-.9066634 2.0343295-1.564 2.805-.6573367.7706705-1.4166624 1.3543314-2.278 1.751-.8613377.3966686-1.7679953.595-2.72.595-.7706706 0-1.5356629-.1699983-2.295-.51-.7593372-.3400017-1.5243295-.8046637-2.295-1.394zm0-5.066c.7480037.6346698 1.4733298 1.082332 2.176 1.343.7026701.260668 1.3259972.391 1.87.391.6800034 0 1.3089971-.1529985 1.887-.459.5780028-.3060015 1.0766645-.7366639 1.496-1.292.4193354-.5553361.7479988-1.2409959.986-2.057.2380011-.8160041.357-1.7339949.357-2.754 0-.9066712-.0793326-1.7339963-.238-2.482-.1586675-.7480037-.413665-1.3883307-.765-1.921-.3513351-.5326693-.8046639-.9463319-1.36-1.241-.5553362-.2946681-1.2183295-.442-1.989-.442-.7026702 0-1.4109965.1926647-2.125.578-.7140036.3853353-1.478996.940663-2.295 1.666zm14.858-4.556c0-1.3600068.2096645-2.5783279.629-3.655.4193354-1.0766721.9746632-1.9889963 1.666-2.737.6913367-.7480037 1.4789955-1.3203314 2.363-1.717.8840044-.3966686 1.8019952-.595 2.754-.595 1.0426718 0 1.9776625.1813315 2.805.544.8273374.3626685 1.5186638.8839966 2.074 1.564.5553361.6800034.9803318 1.4959952 1.275 2.448.2946681.9520048.442 2.0173274.442 3.196 0 .6120031-.0339997 1.121998-.102 1.53h-11.152c.1133339 1.7906756.662995 3.2073281 1.649 4.25.9860049 1.0426719 2.2723254 1.564 3.859 1.564.7933373 0 1.5243299-.1189988 2.193-.357.66867-.2380012 1.3089969-.5496647 1.921-.935l.986 1.836c-.725337.4533356-1.5299956.8499983-2.414 1.19-.8840045.3400017-1.892661.51-3.026.51-1.1106723 0-2.1476619-.1983314-3.111-.595-.9633382-.3966686-1.8019965-.9633297-2.516-1.7-.7140036-.7366704-1.274998-1.6376613-1.683-2.703-.4080021-1.0653387-.612-2.2779932-.612-3.638zm11.56-1.258c0-1.7000085-.3569965-2.9976622-1.071-3.893-.7140036-.8953378-1.7169936-1.343-3.009-1.343-.5893363 0-1.1503307.1189988-1.683.357-.5326694.2380012-1.0143312.5779978-1.445 1.02-.4306689.4420022-.7876653.9859968-1.071 1.632-.2833348.6460032-.4703329 1.3883291-.561 2.227zm6.528-7.038h2.312l.238 2.38h.102c.7933373-.7933373 1.6263289-1.4563307 2.499-1.989.872671-.5326693 1.8869942-.799 3.043-.799 1.745342 0 3.0203293.5439946 3.825 1.632.8046706 1.0880054 1.207 2.6973227 1.207 4.828v10.472h-2.788v-10.098c0-1.5640078-.2493309-2.6916632-.748-3.383-.4986692-.6913368-1.2919946-1.037-2.38-1.037-.8613377 0-1.6206634.2153312-2.278.646-.6573367.4306688-1.4053292 1.0653291-2.244 1.904v11.968h-2.788z" fill="#647af6"/></g></svg>