<svg id="Layer_1" data-name="Layer 1" xmlns="http://www.w3.org/2000/svg" xmlns:xlink="http://www.w3.org/1999/xlink" viewBox="0 0 4581.53 4532.15"><defs><style>.cls-1,.cls-10,.cls-11,.cls-12,.cls-13,.cls-14,.cls-15,.cls-16,.cls-17,.cls-18,.cls-19,.cls-20,.cls-4,.cls-6,.cls-64,.cls-65,.cls-66,.cls-67,.cls-68,.cls-7,.cls-70,.cls-71,.cls-72,.cls-8,.cls-83,.cls-9{fill:none;}.cls-2{clip-path:url(#clip-path);}.cls-3,.cls-5{opacity:0.15;}.cls-4{stroke:#fff;}.cls-10,.cls-11,.cls-12,.cls-13,.cls-14,.cls-15,.cls-16,.cls-17,.cls-18,.cls-19,.cls-20,.cls-4,.cls-6,.cls-64,.cls-65,.cls-66,.cls-67,.cls-68,.cls-7,.cls-70,.cls-71,.cls-72,.cls-75,.cls-76,.cls-77,.cls-78,.cls-79,.cls-8,.cls-80,.cls-81,.cls-82,.cls-83,.cls-9{stroke-miterlimit:10;}.cls-5,.cls-73{fill:#3c3c3b;}.cls-10,.cls-11,.cls-12,.cls-13,.cls-14,.cls-15,.cls-16,.cls-17,.cls-18,.cls-19,.cls-20,.cls-33,.cls-36,.cls-37,.cls-38,.cls-42,.cls-43,.cls-44,.cls-46,.cls-47,.cls-5,.cls-50,.cls-51,.cls-52,.cls-53,.cls-54,.cls-56,.cls-59,.cls-6,.cls-60,.cls-62,.cls-7,.cls-8,.cls-85,.cls-9{isolation:isolate;}.cls-6,.cls-7,.cls-77{stroke:#ffed00;}.cls-10,.cls-12,.cls-14,.cls-16,.cls-17,.cls-19,.cls-6,.cls-8{stroke-width:20px;}.cls-10,.cls-11,.cls-12,.cls-13,.cls-14,.cls-15,.cls-16,.cls-17,.cls-18,.cls-19,.cls-20,.cls-6,.cls-7,.cls-8,.cls-9{opacity:0.36;}.cls-11,.cls-13,.cls-15,.cls-18,.cls-20,.cls-7,.cls-9{stroke-width:9px;}.cls-8,.cls-9{stroke:#e71d73;}.cls-10,.cls-11{stroke:#48d819;}.cls-12,.cls-13,.cls-80{stroke:#6900ff;}.cls-14{stroke:#fc491a;}.cls-15,.cls-16{stroke:#160fb2;}.cls-17,.cls-18,.cls-75{stroke:#e30613;}.cls-19,.cls-20,.cls-76{stroke:#009fe3;}.cls-21{fill:#090909;}.cls-22{fill:#e94e1b;}.cls-23{clip-path:url(#clip-path-3);}.cls-24{fill:#312783;}.cls-25{fill:#f23c0a;}.cls-26{fill:#951b81;}.cls-27{fill:#0dfc00;}.cls-28{fill:#e71d73;}.cls-29,.cls-77{fill:#ffed00;}.cls-30,.cls-76{fill:#009fe3;}.cls-31,.cls-75{fill:#e30613;}.cls-32{fill:#fff;}.cls-33{font-size:38px;}.cls-33,.cls-36,.cls-37,.cls-38,.cls-42,.cls-43,.cls-44,.cls-46,.cls-47,.cls-50,.cls-51,.cls-52,.cls-53,.cls-54,.cls-56,.cls-59,.cls-60,.cls-62{fill:#878787;font-family:MyriadPro-Regular, Myriad Pro;}.cls-34{letter-spacing:0em;}.cls-35{letter-spacing:-0.01em;}.cls-36{font-size:38px;}.cls-37{font-size:38px;}.cls-38{font-size:38px;}.cls-39{letter-spacing:-0.01em;}.cls-40{letter-spacing:-0.01em;}.cls-41{letter-spacing:0em;}.cls-42{font-size:38px;}.cls-43{font-size:38px;}.cls-44{font-size:38px;}.cls-45{letter-spacing:-0.01em;}.cls-46{font-size:38px;}.cls-47{font-size:38px;}.cls-48{letter-spacing:-0.01em;}.cls-49{letter-spacing:0em;}.cls-50{font-size:38px;}.cls-51{font-size:38px;}.cls-52{font-size:38px;}.cls-53{font-size:38px;}.cls-54{font-size:38px;}.cls-55{letter-spacing:-0.01em;}.cls-56{font-size:38px;}.cls-57{letter-spacing:-0.01em;}.cls-58{letter-spacing:0em;}.cls-59{font-size:38px;}.cls-60{font-size:38px;}.cls-61{letter-spacing:-0.01em;}.cls-62{font-size:38px;}.cls-63{opacity:0.4;}.cls-64,.cls-65,.cls-66,.cls-67,.cls-68,.cls-70,.cls-71,.cls-72{stroke:#878787;}.cls-64{stroke-dasharray:15 15;}.cls-65{stroke-dasharray:15.01 15.01;}.cls-66{stroke-dasharray:15.04 15.04;}.cls-67{stroke-dasharray:15.04 15.04;}.cls-68{stroke-dasharray:14.98 14.98;}.cls-69{opacity:0;}.cls-70{stroke-dasharray:14.98 14.98;}.cls-71{stroke-dasharray:15 15;}.cls-72{stroke-dasharray:14.98 14.98;}.cls-74{fill:#b2b2b2;}.cls-75,.cls-77,.cls-78,.cls-79,.cls-80,.cls-81,.cls-82{stroke-width:2px;}.cls-78{fill:#e6007e;stroke:#e6007e;}.cls-79{fill:#3fff00;stroke:#3fff00;}.cls-80{fill:#6900ff;}.cls-81{fill:#ff7900;stroke:#ff7900;}.cls-82{fill:#1800ff;stroke:#1800ff;}.cls-83{stroke:#706f6f;stroke-width:4px;}.cls-84{font-size:12px;font-family:ArialMT, Arial;}</style><clipPath id="clip-path" transform="translate(0 10.3)"><path class="cls-1" d="M2554.3,876.6c-926,0-1676.6,750.6-1676.6,1676.6s750.6,1676.6,1676.6,1676.6,1676.6-750.6,1676.6-1676.6S3480.3,876.6,2554.3,876.6Zm0,2250.7c-317.1,0-574.1-257-574.1-574.1s257-574.1,574.1-574.1,574.1,257,574.1,574.1S2871.4,3127.3,2554.3,3127.3Z"/></clipPath><clipPath id="clip-path-3" transform="translate(0 10.3)"><path class="cls-1" d="M2554,2050.2c-277.8,0-503.1,225.2-503.1,503.1s225.2,503.1,503.1,503.1,503.1-225.2,503.1-503.1S2831.8,2050.2,2554,2050.2Zm0,888.7c-213,0-385.7-172.7-385.7-385.7S2341,2167.5,2554,2167.5s385.7,172.7,385.7,385.7S2767,2938.9,2554,2938.9Z"/></clipPath></defs><title>visual-youp</title><g id="Shares_TLD" data-name="Shares TLD"><g class="cls-2"><g class="cls-3"><path class="cls-4" d="M2555.8,2552.5l-29.2-1674c9.2-.2,20-.3,29.2-.3Z" transform="translate(0 10.3)"/><path class="cls-4" d="M2555.8,2552.5,2497.4,879.3c9.2-.3,20-.6,29.2-.8Z" transform="translate(0 10.3)"/><path class="cls-4" d="M2555.8,2552.5l-87.6-1672c9.2-.5,20-1,29.2-1.3Z" transform="translate(0 10.3)"/><path class="cls-4" d="M2555.8,2552.5,2439,882.3c9.2-.6,19.9-1.3,29.2-1.8Z" transform="translate(0 10.3)"/><path class="cls-4" d="M2555.8,2552.5l-146-1667.9c9.2-.8,19.9-1.6,29.1-2.3Z" transform="translate(0 10.3)"/><path class="cls-4" d="M2555.8,2552.5l-175-1665.1c9.2-1,19.9-2,29.1-2.8Z" transform="translate(0 10.3)"/><path class="cls-4" d="M2555.8,2552.5l-204-1661.8c10.1-1.2,18.9-2.2,29-3.3Z" transform="translate(0 10.3)"/><path class="cls-4" d="M2555.8,2552.5,2265,903.6c29.1-5.1,57.3-9.4,86.7-13Z" transform="translate(0 10.3)"/><path class="cls-4" d="M2555.8,2552.5,2236.3,909c14.5-2.8,14.2-2.8,28.7-5.3Z" transform="translate(0 10.3)"/><path class="cls-4" d="M2555.8,2552.5,1983.1,979.2A1720.79,1720.79,0,0,1,2236.3,909Z" transform="translate(0 10.3)"/><path class="cls-4" d="M2555.8,2552.5,1848.2,1035.1c47.8-22.3,85.4-37.9,134.9-55.9Z" transform="translate(0 10.3)"/><path class="cls-4" d="M2555.8,2552.5l-837.1-1450c47.2-27.3,80.1-44.4,129.6-67.4Z" transform="translate(0 10.3)"/><path class="cls-4" d="M2555.8,2552.5,1413.9,1328a1676.59,1676.59,0,0,1,304.7-225.5Z" transform="translate(0 10.3)"/><path class="cls-4" d="M2555.8,2552.5,938.6,2985.8C772.8,2366.8,945.3,1765,1414,1328Z" transform="translate(0 10.3)"/><path class="cls-4" d="M2555.8,2552.5,946.4,3013.9c-2.5-8.9-5.4-19.2-7.8-28.2Z" transform="translate(0 10.3)"/><path class="cls-4" d="M2555.8,2552.5,954.7,3042c-4.3-14.1-4.2-13.8-8.3-28Z" transform="translate(0 10.3)"/><path class="cls-4" d="M2555.8,2552.5,1014.6,3206.7c-21-49.4-44.3-113.4-59.9-164.7Z" transform="translate(0 10.3)"/><path class="cls-4" d="M2555.8,2552.5,1254.6,3606.1c-108.8-134.4-172.5-240.3-240-399.5Z" transform="translate(0 10.3)"/><path class="cls-4" d="M2555.8,2552.5l433.3,1617.2c-650.2,174.2-1310.8-40.4-1734.5-563.6Z" transform="translate(0 10.3)"/><path class="cls-4" d="M2555.8,2552.5l461.5,1609.4c-8.9,2.5-19.2,5.4-28.2,7.8Z" transform="translate(0 10.3)"/><path class="cls-4" d="M2555.8,2552.5l489.5,1601.1c-8.8,2.7-19.1,5.8-28,8.3Z" transform="translate(0 10.3)"/><path class="cls-4" d="M2555.8,2552.5l545.1,1583c-26.2,9-29.1,9.9-55.6,18.1Z" transform="translate(0 10.3)"/><path class="cls-4" d="M2555.8,2552.5l600,1563.1c-18.1,7-36.6,13.7-54.9,20Z" transform="translate(0 10.3)"/><path class="cls-4" d="M2555.8,2552.5l936.2,1388c-108.9,73.4-213.7,128-336.2,175Z" transform="translate(0 10.3)"/><path class="cls-4" d="M2555.8,2552.5,3780.3,3694.3c-92.1,98.7-176.3,170.7-288.2,246.2Z" transform="translate(0 10.3)"/><path class="cls-4" d="M2555.8,2552.5,3800,3672.7c-6.2,6.9-13.4,14.8-19.7,21.5Z" transform="translate(0 10.3)"/><path class="cls-4" d="M2555.8,2552.5,3819.4,3650.9c-6.1,7-13.2,15-19.4,21.9Z" transform="translate(0 10.3)"/><path class="cls-4" d="M2555.8,2552.5,3838.4,3628.7c-5.9,7.1-12.9,15.2-19,22.2Z" transform="translate(0 10.3)"/><path class="cls-4" d="M2555.8,2552.5,3856.9,3606.1c-5.8,7.2-12.6,15.5-18.6,22.5Z" transform="translate(0 10.3)"/><path class="cls-4" d="M2555.8,2552.5,3875.1,3583.3c-6.3,8-11.8,15-18.2,22.9Z" transform="translate(0 10.3)"/><path class="cls-4" d="M2555.8,2552.5,3892.9,3560c-5.6,7.4-12.1,15.9-17.8,23.2Z" transform="translate(0 10.3)"/><path class="cls-4" d="M2555.8,2552.5l1661.8,204c-38.1,310.2-136.6,553.9-324.7,803.6Z" transform="translate(0 10.3)"/><path class="cls-4" d="M2555.8,2552.5l1665.1,175c-.8,7.4-2.4,21.7-3.3,29Z" transform="translate(0 10.3)"/><path class="cls-4" d="M2555.8,2552.5l1667.9,145.9c-1.3,14.7-1.3,14.4-2.8,29.1Z" transform="translate(0 10.3)"/><path class="cls-4" d="M2555.8,2552.5,4229,2610.9c-.8,23.1-3.3,64.5-5.4,87.5Z" transform="translate(0 10.3)"/><path class="cls-4" d="M2555.8,2552.5l1653.6-261.9c17.5,110.5,23.5,208.5,19.6,320.3Z" transform="translate(0 10.3)"/><path class="cls-4" d="M2555.8,2552.5l1592.3-517.4c30.9,95,45.7,156.8,61.3,255.5Z" transform="translate(0 10.3)"/><path class="cls-4" d="M2555.8,2552.5l1583-545.1c2.4,7,7,20.7,9.3,27.7Z" transform="translate(0 10.3)"/><path class="cls-4" d="M2555.8,2552.5l1573.3-572.6c2.5,7,7.3,20.6,9.8,27.5Z" transform="translate(0 10.3)"/><path class="cls-4" d="M2555.8,2552.5l1563.1-600c3.3,8.6,7.1,18.7,10.2,27.4Z" transform="translate(0 10.3)"/><path class="cls-4" d="M2555.8,2552.5,4097,1898.3c6.5,15.3,15.9,38.6,21.9,54.2Z" transform="translate(0 10.3)"/><path class="cls-4" d="M2555.8,2552.5l1491.8-760.1c18.9,37.1,33.1,67.6,49.4,105.9Z" transform="translate(0 10.3)"/><path class="cls-4" d="M2555.8,2552.5l600-1563.1c405.7,155.7,694.5,415.7,891.8,803Z" transform="translate(0 10.3)"/><path class="cls-4" d="M2555.8,2552.5,3128.4,979.2c8.7,3.2,18.7,6.9,27.4,10.2Z" transform="translate(0 10.3)"/><path class="cls-4" d="M2555.8,2552.5l545.1-1583c8.7,3,18.9,6.6,27.5,9.8Z" transform="translate(0 10.3)"/><path class="cls-4" d="M2555.8,2552.5,3045.3,951.4c25.6,7.8,30.2,9.3,55.6,18.1Z" transform="translate(0 10.3)"/><path class="cls-4" d="M2555.8,2552.5,2989.1,935.3c14.3,3.8,42,11.8,56.2,16.1Z" transform="translate(0 10.3)"/><path class="cls-4" d="M2555.8,2552.5,2875.2,909c41.8,8.1,72.8,15.3,113.9,26.3Z" transform="translate(0 10.3)"/><path class="cls-4" d="M2555.8,2552.5l204-1661.8c43.1,5.3,72.8,10,115.4,18.3Z" transform="translate(0 10.3)"/><path class="cls-4" d="M2555.8,2552.5,2701.7,884.6c12.9,1.1,45.3,4.5,58.1,6.1Z" transform="translate(0 10.3)"/><path class="cls-4" d="M2555.8,2552.5V878.2c60.1,0,86,1.1,145.9,6.4Z" transform="translate(0 10.3)"/></g></g><path class="cls-4" d="M2554.3,876.6c-926,0-1676.6,750.6-1676.6,1676.6s750.6,1676.6,1676.6,1676.6,1676.6-750.6,1676.6-1676.6S3480.3,876.6,2554.3,876.6Zm0,2250.7c-317.1,0-574.1-257-574.1-574.1s257-574.1,574.1-574.1,574.1,257,574.1,574.1S2871.4,3127.3,2554.3,3127.3Z" transform="translate(0 10.3)"/></g><g id="Graph"><path class="cls-5" d="M3046.6,2987l9.4-7.2,9.4-7.8,92.7,59.1-31-39.5L4024,3126.4l-855.3-503.5,93.6-2.4,142-12.9L3621.5,2489l-49.9-177.3L3172,2346.8l5.2-14.2,61.4-35.7,82.7-54.7,68-80L3665,1314.7l-892.5,657.9,34.1-130.1,8.7-88.4L2771,1803l-13.1-128.8-62.5-9-57.1,107.7-44.1-156.2-46,144.8-8.6,181.9-10.4-1.4-10.8-2-13.1-23.7-13.9-33.9-23.2-98.6-45.1-117.1-21.4,58.7-108.1-133.6-90.5,112.5-81.2,14.2-208.7-36.6L777.7,2027.1l1082.3,718-44.2,27.4L1698.7,2863l-144.1,302.4,456.8,1174.5,738.5-1087.7,12.2-2.9,68.4,150.9,15-55.3,198,167,226.6-119.3-267.3-430.5Zm-492.1,155.2c-323.9,0-586.4-262.5-586.4-586.4s262.5-586.4,586.4-586.4,586.4,262.5,586.4,586.4S2878.4,3142.2,2554.5,3142.2Z" transform="translate(0 10.3)"/></g><g id="Value_lines" data-name="Value lines"><line class="cls-6" x1="3571.7" y1="2321.9" x2="3043.3" y2="2446"/><line class="cls-6" x1="3621.6" y1="2499.2" x2="3054.9" y2="2528.8"/><line class="cls-6" x1="3056.1" y1="2592.2" x2="3404.4" y2="2617.8"/><line class="cls-7" x1="3262.4" y1="2630.7" x2="3054.9" y2="2610.3"/><line class="cls-7" x1="3168.8" y1="2632.1" x2="3053.9" y2="2620.5"/><line class="cls-8" x1="4024" y1="3136.6" x2="3019.2" y2="2755.4"/><line class="cls-9" x1="3127.2" y1="3001.8" x2="2954" y2="2868.7"/><line class="cls-9" x1="3158.2" y1="3041.3" x2="2948.7" y2="2875.5"/><line class="cls-9" x1="3065.4" y1="2982.2" x2="2943.1" y2="2882.4"/><line class="cls-9" x1="3056.1" y1="2990" x2="2937.2" y2="2889.5"/><line class="cls-9" x1="3046.6" y1="2997.3" x2="2932.7" y2="2894.7"/><line class="cls-9" x1="3002.6" y1="2972.6" x2="2927.5" y2="2900.6"/><line class="cls-10" x1="3269.9" y1="3403.1" x2="2887.9" y2="2939.8"/><line class="cls-10" x1="3043.3" y1="3522.4" x2="2785.1" y2="3007.7"/><line class="cls-10" x1="2845.3" y1="3355.4" x2="2725.6" y2="3029.9"/><line class="cls-10" x1="2830.3" y1="3410.6" x2="2711.9" y2="3038"/><line class="cls-11" x1="2761.9" y1="3259.7" x2="2699.9" y2="3045.1"/><line class="cls-11" x1="2749.7" y1="3262.6" x2="2691" y2="3045.1"/><line class="cls-12" x1="2011.2" y1="4350.2" x2="2386.3" y2="3038"/><line class="cls-12" x1="1554.5" y1="3175.7" x2="2124.5" y2="2825.6"/><line class="cls-12" x1="1698.6" y1="2873.3" x2="2092.1" y2="2732.9"/><line class="cls-13" x1="1859.9" y1="2755.4" x2="2082.7" y2="2693.6"/><line class="cls-13" x1="1815.7" y1="2782.8" x2="2076.5" y2="2704.2"/><line class="cls-14" x1="777.7" y1="2037.4" x2="2073" y2="2415.8"/><line class="cls-14" x1="1913.2" y1="1692.2" x2="2258" y2="2156.7"/><line class="cls-14" x1="2121.9" y1="1728.8" x2="2329.5" y2="2128.4"/><line class="cls-14" x1="2203.1" y1="1714.6" x2="2368.3" y2="2108.4"/><line class="cls-14" x1="2293.6" y1="1602" x2="2423.1" y2="2089.6"/><line class="cls-15" x1="2401.7" y1="1735.6" x2="2468.2" y2="2090.4"/><line class="cls-16" x1="2423.1" y1="1677" x2="2484.5" y2="2078.3"/><line class="cls-15" x1="2468.2" y1="1794" x2="2500.1" y2="2070.5"/><line class="cls-15" x1="2491.5" y1="1892.6" x2="2509.4" y2="2069.8"/><line class="cls-15" x1="2505.4" y1="1926.5" x2="2517.2" y2="2066.2"/><line class="cls-15" x1="2518.5" y1="1950.2" x2="2525" y2="2067"/><line class="cls-15" x1="2529.2" y1="1952.2" x2="2532.8" y2="2067.7"/><line class="cls-15" x1="2539.6" y1="1952.2" x2="2542.8" y2="2064.1"/><line class="cls-15" x1="2548.2" y1="1771.8" x2="2553" y2="2062.7"/><line class="cls-17" x1="2594.2" y1="1627" x2="2576.6" y2="2070.5"/><line class="cls-17" x1="2638.3" y1="1783.2" x2="2609" y2="2074.4"/><line class="cls-17" x1="2695.4" y1="1675.5" x2="2631.8" y2="2082.7"/><line class="cls-17" x1="2757.9" y1="1684.5" x2="2663.6" y2="2082.7"/><line class="cls-17" x1="2771" y1="1813.2" x2="2687.9" y2="2097.6"/><line class="cls-17" x1="2815.3" y1="1764.3" x2="2702.9" y2="2108.4"/><line class="cls-18" x1="2806.7" y1="1852.7" x2="2710.8" y2="2128.4"/><line class="cls-18" x1="2772.6" y1="1982.8" x2="2724.7" y2="2111.4"/><line class="cls-19" x1="3665.1" y1="1324.9" x2="2890.4" y2="2189.5"/><line class="cls-19" x1="3389.4" y1="2172.4" x2="3000.4" y2="2353.7"/><line class="cls-19" x1="3321.4" y1="2252.4" x2="3012.2" y2="2378.2"/><line class="cls-20" x1="3238.8" y1="2307.1" x2="3025.5" y2="2387.9"/><line class="cls-20" x1="3177.4" y1="2342.9" x2="3021.5" y2="2398.1"/><line class="cls-20" x1="3172.2" y1="2357.1" x2="3025.5" y2="2405.3"/></g><g id="Laag_19" data-name="Laag 19"><circle class="cls-21" cx="2553" cy="2566.1" r="584.1"/></g><g id="Country_circles" data-name="Country circles"><path class="cls-22" d="M2554,2050.2c-277.8,0-503.1,225.2-503.1,503.1s225.2,503.1,503.1,503.1,503.1-225.2,503.1-503.1S2831.8,2050.2,2554,2050.2Zm0,888.7c-213,0-385.7-172.7-385.7-385.7S2341,2167.5,2554,2167.5s385.7,172.7,385.7,385.7S2767,2938.9,2554,2938.9Z" transform="translate(0 10.3)"/><g class="cls-23"><path class="cls-24" d="M2554,2553.2l-111.4-573a563.05,563.05,0,0,1,111.4-10.7Z" transform="translate(0 10.3)"/><path class="cls-25" d="M2554,2553.2l-563.9,151.1c-83.4-311.4,101.4-631.5,412.8-714.9,12.5-3.3,27-6.7,39.7-9.2Z" transform="translate(0 10.3)"/><path class="cls-26" d="M2554,2553.2l151.1,563.9c-311.4,83.4-631.5-101.4-714.9-412.8h0Z" transform="translate(0 10.3)"/><path class="cls-27" d="M2553.1,2552.3,2980,2950.4c-79.2,84.9-163.7,135.7-275.8,165.7Z" transform="translate(0 10.3)"/><path class="cls-28" d="M2553.1,2552.3l579.4,71.1c-15.7,128-64.5,232.7-152.5,327Z" transform="translate(0 10.3)"/><path class="cls-29" d="M2553.1,2552.3l555.2-180.4c27.9,85.9,35.2,161.9,24.2,251.5Z" transform="translate(0 10.3)"/><path class="cls-30" d="M2554,2553.2l209.2-545c168.6,64.7,290.2,192.9,346,364.6Z" transform="translate(0 10.3)"/><path class="cls-31" d="M2554,2553.2V1969.4c77.4,0,137,11,209.2,38.8Z" transform="translate(0 10.3)"/></g></g><g id="Countrys"><path class="cls-32" d="M2611.2,2088.2l-13.5-1.7.6-4.9,32.8,4.2-.6,4.9L2617,2089l-5,39.4-5.8-.7Z" transform="translate(0 10.3)"/><path class="cls-32" d="M2634.6,2117.7l-7.3,12.8-5.8-1.2,23.7-40.7,6.8,1.4,6.1,46.7-6-1.2-1.9-14.7Zm15.2-1.5-1.7-13.4c-.4-3.1-.5-5.8-.7-8.4h-.1c-1.2,2.5-2.4,5-3.8,7.5l-6.8,11.8Z" transform="translate(0 10.3)"/><path class="cls-32" d="M2870.3,2260.7c-2.2-.7-6-3-9.8-6.8-8.9-8.9-10-21.2.3-31.5,9.9-9.9,23.2-9.9,33-.2,3.9,3.9,5.6,7.2,6.1,8.9l-4.3,2.3a20.86,20.86,0,0,0-5.1-7.7c-7.4-7.4-17-7.5-25.3.7-7.7,7.7-8.2,17.1-.5,24.8a21.81,21.81,0,0,0,8,5.3Z" transform="translate(0 10.3)"/><path class="cls-32" d="M2889,2263.2l-13.7,5.5-3.8-4.6,43.9-17,4.5,5.3-24.4,40.3-4-4.7,7.7-12.7Zm12.9,8.3,7-11.6c1.6-2.6,3.2-4.8,4.8-7l-.1-.1c-2.5,1.2-5,2.4-7.6,3.5l-12.7,4.9Z" transform="translate(0 10.3)"/><path class="cls-32" d="M3020.3,2469.1a94.16,94.16,0,0,1,2.7,12c1.2,8.2.1,14.3-2.9,18.7s-7.8,7.5-15,8.5-13.4-.3-18.1-3.9-7.9-10-9.2-18.6a94.36,94.36,0,0,1-1-10.4Zm-38.2,11.3a33.15,33.15,0,0,0,.5,5.8c1.8,12.2,9.5,17.8,21.4,16.1,10.4-1.4,16.2-8.3,14.5-20.3a28.81,28.81,0,0,0-1.6-6.6Z" transform="translate(0 10.3)"/><path class="cls-32" d="M3026.8,2515.7l.3,5.7-21.5,1.1v.2c1.8,1.1,3.4,2.2,4.9,3.3l17.4,12.7.4,7.1-19.8-15.1-24.7,18.7-.4-6.8,21.1-15.8-5.1-4-17,.9-.3-5.7Z" transform="translate(0 10.3)"/><path class="cls-32" d="M2993.6,2732.2l-24.2-10.5c-9.2-4-14.8-1.6-17.2,3.9-2.6,6.1-.3,11.7,8.8,15.6l24.2,10.5-2.3,5.3-23.9-10.3c-12.6-5.4-14.9-14.3-11-23.2,3.6-8.4,11.2-12.6,23.9-7.1l24.1,10.4Z" transform="translate(0 10.3)"/><path class="cls-32" d="M2944.4,2750a20.57,20.57,0,0,0-7.5,7.7c-2.8,5.2-1.7,9.7,2.3,11.8,3.7,2,6.9,1,11.8-3.2,5.7-5.2,11.2-7.4,16.7-4.4,6.1,3.3,7.9,10.8,3.8,18.4a20.68,20.68,0,0,1-6.6,7.6l-3.4-3.6a17.37,17.37,0,0,0,5.9-6.5c2.9-5.4.8-9.1-1.9-10.6-3.7-2-6.8-.6-11.8,3.7-6.1,5.3-11.2,6.9-16.9,3.8-6.1-3.3-8.9-10.6-3.9-19.8a23.39,23.39,0,0,1,7.9-8.7Z" transform="translate(0 10.3)"/><path class="cls-32" d="M2811.3,2906.9a20.79,20.79,0,0,0-10.2,3.5c-4.8,3.3-5.9,7.9-3.4,11.6,2.4,3.4,5.7,4,12,2.5,7.5-2,13.3-1.4,16.9,3.7,3.9,5.7,2.1,13.2-5,18.2a20.35,20.35,0,0,1-9.4,3.8l-1.4-4.8a18.32,18.32,0,0,0,8.2-3.1c5-3.5,4.9-7.8,3.1-10.3-2.4-3.4-5.8-3.6-12.2-2.1-7.9,1.9-13.1,1.1-16.8-4.3-3.9-5.7-3.1-13.5,5.6-19.4,3.5-2.4,8.1-4.1,11-4.1Z" transform="translate(0 10.3)"/><path class="cls-32" d="M2770.9,2949.1l15-8.8-8.1-13.9-16.7,9.8-2.4-4.2,21.6-12.7,22.5,38.5L2782,2970l-2.4-4.2,15.8-9.3-7.1-12.2-15,8.8Z" transform="translate(0 10.3)"/><path class="cls-32" d="M2300.9,2954.4a61.2,61.2,0,0,1-9.7-5.4c-5.1-3.4-7.8-6.6-8.7-10.2a11.08,11.08,0,0,1,1.8-9,11.69,11.69,0,0,1,13.3-4.8l.1-.2c-2.2-2.9-2.1-6.7-.4-11.1,2.3-6,3.8-10.1,4-12.1l4.9,3.3c-.1,1.5-1.4,5.2-3.5,10.5-2.3,5.8-1.6,9.1,2.6,12.2l4.5,3,10.8-16,4.8,3.2Zm6.5-20.1-4.9-3.3c-5.1-3.4-10.2-2.8-13.1,1.4-3.2,4.8-1.2,9.2,3.9,12.6a21.25,21.25,0,0,0,5,2.7Z" transform="translate(0 10.3)"/><path class="cls-32" d="M2264.3,2929.4l16.6-20.5c6.3-7.8,5.5-13.8.9-17.6-5.1-4.2-11.2-3.4-17.4,4.2l-16.6,20.5-4.5-3.7,16.4-20.2c8.6-10.6,17.8-10.5,25.3-4.4,7.1,5.7,9.2,14.1.5,24.9L2269,2933Z" transform="translate(0 10.3)"/><path class="cls-32" d="M2194.6,2318.3l-36.3-25.9,3.7-5.1,26.7,1.5a121.62,121.62,0,0,1,16.4,1.9v-.1c-5.2-3-9.6-6.1-15.3-10.1l-15.2-10.8,3.2-4.4,36.3,25.9-3.4,4.7-26.6-1.6a149.71,149.71,0,0,1-17-1.9l-.1.2c4.8,3,9.2,6,15.2,10.3l15.5,11.1Z" transform="translate(0 10.3)"/><path class="cls-32" d="M2185.9,2255.1l3.7-4.4,30.3,25.8,12.3-14.5,3.7,3.1-16.1,18.9Z" transform="translate(0 10.3)"/><path class="cls-32" d="M2490.2,2084l23.9-2.7.5,4.8-18.2,2,1.6,14.7,16.8-1.9.5,4.7-16.8,1.9,2.2,20.1-5.7.6Z" transform="translate(0 10.3)"/><path class="cls-32" d="M2529.9,2080.5l2.5,44.5-5.7.3-2.5-44.5Z" transform="translate(0 10.3)"/></g><g id="TLD"><text class="cls-33" transform="translate(2631.78 869.4) rotate(-87.68)">.<tspan class="cls-34" x="7.87" y="0">a</tspan><tspan x="26.03" y="0">t</tspan></text><text class="cls-33" transform="translate(2741.48 877.16) rotate(-83.87)">.eu</text><text class="cls-33" transform="translate(2828.04 889.92) rotate(-79.36)">.<tspan class="cls-35" x="7.87" y="0">c</tspan><tspan x="24.66" y="0">om</tspan></text><text class="cls-36" transform="matrix(0.25, -0.97, 0.97, 0.25, 2944.62, 913.79)">.de</text><text class="cls-33" transform="translate(3032.37 937.55) rotate(-71.95)">.biz</text><text class="cls-37" transform="translate(3086.7 954.31) rotate(-69.01)">.net</text><text class="cls-38" transform="translate(3126.17 969.06) rotate(-69.01)">.o<tspan class="cls-39" x="28.73" y="0">r</tspan><tspan x="40.85" y="0">g</tspan></text><text class="cls-33" transform="translate(3161.55 981.01) rotate(-68.29)">.in<tspan class="cls-40" x="37.85" y="0">f</tspan><tspan class="cls-41" x="48.45" y="0">o</tspan></text><text class="cls-33" transform="translate(3691.68 1312.5) rotate(-48.64)">.<tspan class="cls-35" x="7.87" y="0">c</tspan><tspan x="24.66" y="0">om</tspan></text><text class="cls-42" transform="translate(4086.64 1847.78) rotate(-26.2)">.ca</text><text class="cls-43" transform="translate(4122.56 1929.86) rotate(-18.94)">.net</text><text class="cls-44" transform="translate(4140.61 1975.72) rotate(-20.18)">.link</text><text class="cls-33" transform="matrix(0.97, -0.26, 0.26, 0.97, 4151.36, 2007.45)">.de</text><text class="cls-33" transform="translate(4160.75 2037.41) rotate(-17.72)">.o<tspan class="cls-45" x="28.73" y="0">r</tspan><tspan x="40.85" y="0">g</tspan></text><text class="cls-33" transform="translate(4198.72 2161.6) rotate(-13.25)">.<tspan class="cls-35" x="7.87" y="0">c</tspan><tspan x="24.66" y="0">om</tspan></text><text class="cls-33" transform="translate(4243.44 2468.9) rotate(-3.15)">.dk</text><text class="cls-33" transform="translate(4242.56 2673.37) rotate(5.89)">.net</text><text class="cls-33" transform="matrix(0.99, 0.11, -0.11, 0.99, 4235.42, 2732.93)">.o<tspan class="cls-45" x="28.73" y="0">r</tspan><tspan x="40.85" y="0">g</tspan></text><text class="cls-46" transform="matrix(0.99, 0.11, -0.11, 0.99, 4231.39, 2765.65)">.se</text><text class="cls-47" transform="translate(4135.98 3168.14) rotate(21.85)">.<tspan class="cls-48" x="7.87" y="0">c</tspan><tspan class="cls-49" x="24.66" y="0">om</tspan></text><text class="cls-33" transform="translate(3900.23 3592.47) rotate(39.76)">.link</text><text class="cls-50" transform="translate(3877.17 3617.53) rotate(40.91)">.net</text><text class="cls-33" transform="matrix(0.76, 0.65, -0.65, 0.76, 3856.28, 3643.74)">.de</text><text class="cls-33" transform="matrix(0.74, 0.67, -0.67, 0.74, 3834.73, 3668.21)">.biz</text><text class="cls-33" transform="translate(3814.92 3690.91) rotate(42.18)">.o<tspan class="cls-45" x="28.73" y="0">r</tspan><tspan x="40.85" y="0">g</tspan></text><text class="cls-33" transform="translate(3791.91 3717.81) rotate(42.1)">.91</text><text class="cls-33" transform="translate(3673.57 3837.34) rotate(48.96)">.se</text><text class="cls-33" transform="matrix(0.41, 0.91, -0.91, 0.41, 3342.89, 4062.88)">.<tspan class="cls-35" x="7.87" y="0">c</tspan><tspan x="24.66" y="0">om</tspan></text><text class="cls-51" transform="translate(3134.26 4156.13) rotate(69.93)">.nl</text><text class="cls-33" transform="translate(3077.04 4176.92) rotate(72.07)">.nett</text><text class="cls-33" transform="translate(3032.4 4190.61) rotate(73.48)">.in<tspan class="cls-40" x="37.85" y="0">f</tspan><tspan class="cls-41" x="48.45" y="0">o</tspan></text><text class="cls-52" transform="translate(2994.35 4200.46) rotate(74.4)">.dk</text><text class="cls-53" transform="translate(2054.61 4190.27) rotate(109.12)">.ru</text><text class="cls-33" transform="matrix(-0.95, 0.3, -0.3, -0.95, 950.02, 3135.27)">.net</text><text class="cls-54" transform="matrix(-0.86, 0.51, -0.51, -0.86, 1070.42, 3403.1)">.<tspan class="cls-55" x="7.87" y="0">c</tspan><tspan x="24.66" y="0">om</tspan></text><text class="cls-33" transform="matrix(-0.97, 0.23, -0.23, -0.97, 910.46, 3007.73)">.name</text><text class="cls-56" transform="translate(920.06 3047.12) rotate(164.54)">.o<tspan class="cls-57" x="28.73" y="0">r</tspan><tspan class="cls-58" x="40.85" y="0">g</tspan></text><text class="cls-33" transform="translate(693.32 2002.83) rotate(-163.5)">.nl</text><text class="cls-33" transform="matrix(-0.6, -0.8, 0.8, -0.6, 1561.31, 1183.42)">.net</text><text class="cls-33" transform="matrix(-0.46, -0.89, 0.89, -0.46, 1777.48, 1052)">.de</text><text class="cls-33" transform="translate(1913.19 989.14) rotate(-113.77)">.eu</text><text class="cls-33" transform="translate(2141.7 916.94) rotate(-108.28)">.<tspan class="cls-35" x="7.87" y="0">c</tspan><tspan x="24.66" y="0">om</tspan></text><text class="cls-33" transform="translate(2318.54 882.99) rotate(-97.74)">.fi</text><text class="cls-59" transform="matrix(-0.18, -0.98, 0.98, -0.18, 2255.27, 891.63)">.net</text><text class="cls-33" transform="translate(2368.33 876.34) rotate(-97.12)">.<tspan class="cls-35" x="7.87" y="0">c</tspan><tspan x="24.66" y="0">om</tspan></text><text class="cls-60" transform="translate(2398.34 875.17) rotate(-94.63)">.o<tspan class="cls-61" x="28.73" y="0">r</tspan><tspan x="40.85" y="0">g</tspan></text><text class="cls-33" transform="translate(2426.82 872.21) rotate(-93.64)">.se</text><text class="cls-33" transform="translate(2458.06 869.79) rotate(-93.37)">.mobi</text><text class="cls-62" transform="translate(2487.08 868.73) rotate(-92.19)">.eu</text><text class="cls-33" transform="translate(2517.47 868.42) rotate(-91.95)">.dk</text><text class="cls-33" transform="translate(2548.26 868.66) rotate(-90.16)">.uk</text></g><g id="Circles_lines" data-name="Circles lines"><g class="cls-63"><circle class="cls-64" cx="2554" cy="2563.5" r="1021.8"/></g><g class="cls-63"><circle class="cls-65" cx="2554.4" cy="2562.2" r="1208.8"/></g><g class="cls-63"><circle class="cls-66" cx="2554" cy="2563.5" r="746.8"/></g><g class="cls-63"><circle class="cls-67" cx="2554.6" cy="2563.2" r="871"/></g><g class="cls-63"><circle class="cls-68" cx="2553.9" cy="2564.1" r="1406.6"/></g><g class="cls-69"><circle class="cls-70" cx="2555.7" cy="2564.1" r="1821.7"/></g><g class="cls-63"><circle class="cls-71" cx="2554" cy="2563.5" r="1676.2"/></g><g class="cls-69"><circle class="cls-72" cx="2548.2" cy="2563.5" r="1697.8"/></g></g><g id="Euros"><path class="cls-73" d="M1536.7,2332.6l-2.1-.5-2-3.2c-4.6-7.8-7.2-11.4-11-12.3-2.5-.6-5.2.1-6,3.8a8.86,8.86,0,0,0,.9,5.8l-2.6.5a11,11,0,0,1-.9-7.7c1.2-5.4,5.4-6.8,9-6,4.6,1.1,7.6,5.2,11.5,11.7l1.4,2.4h.1l2.6-11.2,2.8.6Z" transform="translate(0 10.3)"/><path class="cls-73" d="M1539.3,2312.2a2.37,2.37,0,1,1,3-1.7A2.27,2.27,0,0,1,1539.3,2312.2Z" transform="translate(0 10.3)"/><path class="cls-73" d="M1524.9,2284.6l-2.4,9.5,6.1,2.6a12.26,12.26,0,0,1,.4-2.1,11.06,11.06,0,0,1,2.7-5,7.27,7.27,0,0,1,7.3-1.9c4.9,1.2,7.5,6,6.1,11.4a12.44,12.44,0,0,1-3.1,5.8l-2.3-1.5a10.58,10.58,0,0,0,2.7-5c.8-3.2-.6-6.4-3.9-7.3s-6.1.8-7.3,5.7a19.68,19.68,0,0,0-.6,3.5l-11.5-4.7,3-11.9Z" transform="translate(0 10.3)"/><path class="cls-73" d="M1540.1,2265.7c8.4,2.3,12.2,6.7,10.7,12.2-1.3,4.8-6.8,6.8-15,4.7-8.3-2.3-11.9-7.1-10.5-12.2S1532.3,2263.5,1540.1,2265.7Zm-3.3,13.5c6.4,1.8,10.6.8,11.5-2.2.9-3.4-2.6-6.2-8.9-7.9-6.1-1.7-10.5-1.2-11.5,2.2C1527.1,2274.3,1530.1,2277.4,1536.8,2279.2Z" transform="translate(0 10.3)"/><path class="cls-73" d="M1545.9,2246.2c8.4,2.5,12,7,10.4,12.4-1.4,4.8-6.9,6.7-15,4.4-8.2-2.5-11.7-7.4-10.2-12.4C1532.6,2245.4,1538.1,2243.9,1545.9,2246.2Zm-3.6,13.5c6.4,1.9,10.6,1,11.5-2,1-3.4-2.5-6.2-8.7-8.1-6-1.8-10.5-1.4-11.5,2C1532.7,2254.5,1535.6,2257.7,1542.3,2259.7Z" transform="translate(0 10.3)"/><path class="cls-73" d="M1557.5,2246.1a2.35,2.35,0,0,1-1.7-3,2.38,2.38,0,0,1,3.1-1.5,2.31,2.31,0,0,1,1.7,3A2.38,2.38,0,0,1,1557.5,2246.1Z" transform="translate(0 10.3)"/><path class="cls-73" d="M1554.7,2219c8.3,2.7,11.9,7.3,10.1,12.7-1.6,4.8-7.1,6.5-15.2,4-8.2-2.7-11.5-7.7-9.9-12.6C1541.4,2217.9,1546.9,2216.4,1554.7,2219Zm-4,13.3c6.3,2.1,10.6,1.3,11.6-1.7,1.1-3.4-2.3-6.3-8.5-8.3-6-2-10.4-1.7-11.6,1.7C1541.2,2226.9,1544.1,2230.2,1550.7,2232.3Z" transform="translate(0 10.3)"/><path class="cls-73" d="M1561.4,2199.8c8.2,2.9,11.7,7.5,9.8,12.9-1.7,4.7-7.2,6.4-15.2,3.7s-11.4-7.9-9.6-12.8C1548.1,2198.4,1553.6,2197.1,1561.4,2199.8Zm-4.3,13.2c6.3,2.2,10.5,1.5,11.6-1.5,1.2-3.4-2.2-6.3-8.4-8.5-6-2.1-10.4-1.9-11.6,1.5C1547.8,2207.4,1550.5,2210.7,1557.1,2213Z" transform="translate(0 10.3)"/><path class="cls-73" d="M1568.4,2180.7c8.2,3,11.6,7.7,9.6,13.1-1.7,4.7-7.3,6.2-15.3,3.4-8.1-3-11.2-8.1-9.4-13C1555.2,2179,1560.8,2177.8,1568.4,2180.7Zm-4.5,13.1c6.3,2.3,10.5,1.7,11.6-1.2,1.2-3.3-2.1-6.4-8.2-8.6-5.9-2.2-10.4-2.1-11.6,1.2C1554.7,2188.1,1557.4,2191.4,1563.9,2193.8Z" transform="translate(0 10.3)"/><path class="cls-73" d="M1333,2267.6l-2.5,11.1,7.2,2.8a14.77,14.77,0,0,1,.4-2.4,12.3,12.3,0,0,1,3-5.9,8.56,8.56,0,0,1,8.4-2.5c5.7,1.3,8.9,6.8,7.5,13.1a13.84,13.84,0,0,1-3.5,6.9l-2.8-1.7a12.88,12.88,0,0,0,3-5.9c.9-3.7-.8-7.5-4.7-8.4s-7,1.1-8.4,6.9a26.94,26.94,0,0,0-.6,4.1l-13.6-5.1,3.2-13.9Z" transform="translate(0 10.3)"/><path class="cls-73" d="M1357.9,2267.2a2.78,2.78,0,0,1-2.2-3.4,2.94,2.94,0,0,1,5.7,1.4A2.83,2.83,0,0,1,1357.9,2267.2Z" transform="translate(0 10.3)"/><path class="cls-73" d="M1362.3,2258.9l-2.4-.6-2.2-3.8c-5.1-9.2-8-13.5-12.4-14.7-2.9-.8-6,0-7.1,4.3a9.93,9.93,0,0,0,.9,6.8l-3.1.5a12.84,12.84,0,0,1-.8-9c1.6-6.2,6.6-7.8,10.7-6.7,5.3,1.4,8.7,6.4,13,14l1.5,2.9h.1l3.4-13,3.3.8Z" transform="translate(0 10.3)"/><path class="cls-73" d="M1347.5,2211.9l-3.1,11,7.1,3.2a17.26,17.26,0,0,1,.5-2.4,12.44,12.44,0,0,1,3.3-5.8,8.49,8.49,0,0,1,8.5-2.1c5.6,1.6,8.6,7.2,6.9,13.5a14.75,14.75,0,0,1-3.8,6.7l-2.7-1.8a13.56,13.56,0,0,0,3.3-5.7c1-3.7-.5-7.5-4.4-8.6-3.7-1-7.1.8-8.7,6.5a29,29,0,0,0-.8,4.1l-13.3-5.7,3.8-13.8Z" transform="translate(0 10.3)"/><path class="cls-73" d="M1365.6,2190.2c9.7,2.9,14,8.1,12.1,14.5-1.7,5.6-8.1,7.8-17.6,5.1-9.6-2.9-13.7-8.6-11.9-14.4C1350.1,2189.3,1356.5,2187.5,1365.6,2190.2Zm-4.2,15.7c7.4,2.2,12.4,1.2,13.4-2.3,1.2-4-2.9-7.2-10.2-9.4-7.1-2.1-12.2-1.7-13.4,2.3C1350.2,2199.9,1353.6,2203.6,1361.4,2205.9Z" transform="translate(0 10.3)"/><path class="cls-73" d="M1379.1,2190.1a2.71,2.71,0,0,1-1.9-3.5,2.75,2.75,0,0,1,3.6-1.7,2.67,2.67,0,0,1,1.9,3.5A2.75,2.75,0,0,1,1379.1,2190.1Z" transform="translate(0 10.3)"/><path class="cls-73" d="M1375.8,2158.5c9.7,3.2,13.8,8.5,11.7,14.8-1.8,5.6-8.3,7.6-17.7,4.6s-13.4-9-11.5-14.7C1360.3,2157.2,1366.8,2155.5,1375.8,2158.5Zm-4.6,15.6c7.4,2.4,12.3,1.5,13.5-2,1.3-3.9-2.7-7.3-9.9-9.7-7-2.3-12.2-2-13.5,2C1360.1,2167.7,1363.5,2171.5,1371.2,2174.1Z" transform="translate(0 10.3)"/><path class="cls-73" d="M1383.6,2136.1c9.6,3.4,13.6,8.8,11.5,15-1.9,5.5-8.4,7.4-17.8,4.3-9.5-3.3-13.3-9.2-11.2-14.9C1368.1,2134.5,1374.6,2133,1383.6,2136.1Zm-4.9,15.5c7.3,2.6,12.3,1.8,13.5-1.7,1.4-3.9-2.5-7.4-9.7-9.9-6.9-2.4-12.1-2.2-13.5,1.7C1367.8,2145,1371,2148.9,1378.7,2151.6Z" transform="translate(0 10.3)"/><path class="cls-73" d="M1391.8,2113.9c9.5,3.5,13.5,9,11.2,15.2-2,5.5-8.5,7.3-17.8,3.9s-13.1-9.5-11-15.2S1382.9,2110.5,1391.8,2113.9Zm-5.2,15.3c7.3,2.7,12.3,2,13.5-1.5,1.4-3.9-2.4-7.4-9.6-10.1-6.9-2.6-12.1-2.5-13.5,1.5C1375.8,2122.5,1379,2126.4,1386.6,2129.2Z" transform="translate(0 10.3)"/><path class="cls-73" d="M1787.5,2383.8h0l1.2,4.4-2.4.1-1.5-5.4.6-2.6,22.2,5-.7,2.9Z" transform="translate(0 10.3)"/><path class="cls-73" d="M1801.8,2359.8c7.5,1.9,11,5.7,9.7,10.6-1.1,4.3-5.8,6.2-13.2,4.5s-10.7-6.1-9.6-10.5C1789.9,2359.7,1794.7,2358.1,1801.8,2359.8Zm-2.7,12.1c5.7,1.4,9.4.5,10.1-2.2.8-3.1-2.4-5.4-8.1-6.8-5.4-1.4-9.3-.9-10.1,2.2C1790.4,2367.7,1793.1,2370.4,1799.1,2371.9Z" transform="translate(0 10.3)"/><path class="cls-73" d="M1806.5,2342.4c7.5,2,10.8,5.9,9.5,10.8-1.2,4.3-6,6.1-13.3,4.2s-10.5-6.3-9.3-10.8S1799.6,2340.5,1806.5,2342.4Zm-2.9,12c5.7,1.6,9.4.7,10.2-2,.8-3-2.3-5.5-7.9-7-5.4-1.5-9.3-1.1-10.2,2C1795,2350,1797.6,2352.7,1803.6,2354.4Z" transform="translate(0 10.3)"/><path class="cls-73" d="M1816.9,2342.1a2.05,2.05,0,0,1-1.5-2.6,2.09,2.09,0,0,1,2.7-1.4,2,2,0,0,1,1.5,2.6A2.13,2.13,0,0,1,1816.9,2342.1Z" transform="translate(0 10.3)"/><path class="cls-73" d="M1813.9,2318.1c7.4,2.3,10.6,6.3,9.1,11.1-1.3,4.2-6.2,5.9-13.4,3.7s-10.3-6.6-9-11.1C1802.1,2317.3,1807,2315.9,1813.9,2318.1Zm-3.3,11.9c5.7,1.8,9.4,1,10.2-1.7.9-3-2.1-5.5-7.7-7.3-5.3-1.7-9.3-1.4-10.2,1.7C1802.1,2325.3,1804.7,2328.1,1810.6,2330Z" transform="translate(0 10.3)"/><path class="cls-73" d="M1819.6,2300.9c7.3,2.5,10.5,6.5,8.9,11.3-1.4,4.2-6.3,5.7-13.5,3.4s-10.2-6.9-8.7-11.3S1812.7,2298.6,1819.6,2300.9Zm-3.6,11.8c5.6,1.9,9.4,1.2,10.3-1.4,1-3-2-5.6-7.5-7.4-5.3-1.8-9.3-1.6-10.3,1.4C1807.7,2307.9,1810.1,2310.8,1816,2312.7Z" transform="translate(0 10.3)"/><path class="cls-73" d="M1825.7,2283.9c7.3,2.6,10.3,6.8,8.6,11.5-1.5,4.2-6.5,5.6-13.6,3.1s-10-7.1-8.4-11.5S1818.9,2281.4,1825.7,2283.9Zm-3.8,11.7c5.6,2,9.3,1.4,10.3-1.2,1.1-3-1.9-5.6-7.3-7.6s-9.2-1.8-10.3,1.2C1813.6,2290.6,1816,2293.5,1821.9,2295.6Z" transform="translate(0 10.3)"/><path class="cls-73" d="M1658.4,2344.7l2.3.5,21,16.6-.8,3.6-20.4-16.4h-.1l-2.9,12.7-2.9-.7Z" transform="translate(0 10.3)"/><path class="cls-73" d="M1666.1,2326l-2.5,9.8,6.4,2.6a10.73,10.73,0,0,1,.4-2.1,10.55,10.55,0,0,1,2.8-5.2,7.66,7.66,0,0,1,7.5-2c5,1.3,7.8,6.2,6.4,11.8a12.77,12.77,0,0,1-3.2,6l-2.4-1.5a12,12,0,0,0,2.8-5.1c.8-3.3-.6-6.6-4.1-7.5-3.3-.8-6.3.8-7.5,6a22.15,22.15,0,0,0-.6,3.6l-11.9-4.7,3.1-12.3Z" transform="translate(0 10.3)"/><path class="cls-73" d="M1681.8,2306.4c8.7,2.4,12.6,6.9,11.1,12.6-1.4,5-7,7.1-15.5,4.9-8.6-2.4-12.3-7.3-10.9-12.5C1668,2305.9,1673.6,2304.1,1681.8,2306.4Zm-3.4,14c6.7,1.8,11,.8,11.9-2.3,1-3.5-2.7-6.4-9.2-8.2-6.3-1.7-10.9-1.2-11.9,2.3C1668.3,2315.2,1671.4,2318.4,1678.4,2320.4Z" transform="translate(0 10.3)"/><path class="cls-73" d="M1693.8,2306a2.4,2.4,0,0,1-1.8-3.1,2.36,2.36,0,0,1,3.1-1.6,2.43,2.43,0,0,1,1.8,3.1A2.32,2.32,0,0,1,1693.8,2306Z" transform="translate(0 10.3)"/><path class="cls-73" d="M1690.4,2278c8.6,2.7,12.4,7.3,10.6,13-1.5,5-7.2,6.9-15.6,4.3s-12-7.8-10.4-12.9C1676.6,2277.1,1682.3,2275.5,1690.4,2278Zm-3.9,13.9c6.6,2,11,1.2,11.9-1.9,1.1-3.5-2.5-6.5-9-8.5-6.2-1.9-10.8-1.6-11.9,1.9C1676.6,2286.4,1679.6,2289.7,1686.5,2291.9Z" transform="translate(0 10.3)"/><path class="cls-73" d="M1697.1,2258c8.6,2.9,12.2,7.6,10.3,13.2-1.7,4.9-7.4,6.7-15.7,4s-11.9-8-10.1-13.1C1683.3,2256.7,1689,2255.3,1697.1,2258Zm-4.2,13.8c6.5,2.2,10.9,1.4,12-1.7,1.2-3.5-2.3-6.5-8.8-8.7-6.2-2.1-10.8-1.9-12,1.7C1683.1,2266.1,1686,2269.5,1692.9,2271.8Z" transform="translate(0 10.3)"/><path class="cls-73" d="M1704.2,2238.1c8.5,3.1,12,7.9,10,13.4-1.8,4.9-7.5,6.5-15.8,3.6s-11.7-8.3-9.8-13.4S1696.2,2235.3,1704.2,2238.1Zm-4.5,13.7c6.5,2.3,10.9,1.7,12-1.4,1.2-3.5-2.2-6.6-8.6-8.9-6.1-2.2-10.7-2.1-12,1.4C1690.1,2245.9,1692.9,2249.4,1699.7,2251.8Z" transform="translate(0 10.3)"/><path class="cls-73" d="M1133.2,2214l2.9.7,26.3,21-1.1,4.6-25.5-20.8h-.1l-3.7,15.9-3.7-.9Z" transform="translate(0 10.3)"/><path class="cls-73" d="M1164.3,2216.2a3.11,3.11,0,0,1-2.4-3.8,3.08,3.08,0,0,1,3.9-2.2,3,3,0,0,1,2.4,3.8A3.09,3.09,0,0,1,1164.3,2216.2Z" transform="translate(0 10.3)"/><path class="cls-73" d="M1158.4,2181.2c11,2.9,16,8.5,14.1,15.7-1.6,6.3-8.7,9-19.4,6.4-10.8-2.8-15.6-9-13.9-15.6C1141,2180.8,1148.1,2178.5,1158.4,2181.2Zm-4.1,17.7c8.4,2.2,13.8.8,14.9-3.1,1.2-4.5-3.5-8-11.8-10.1-8-2.1-13.7-1.4-14.9,3.1C1141.6,2192.6,1145.5,2196.6,1154.3,2198.9Z" transform="translate(0 10.3)"/><path class="cls-73" d="M1165.5,2155.7c10.9,3.1,15.8,8.8,13.8,15.9-1.8,6.3-8.8,8.9-19.5,6s-15.4-9.3-13.6-15.9S1155.2,2152.8,1165.5,2155.7Zm-4.4,17.6c8.4,2.3,13.8,1.1,14.9-2.9,1.2-4.5-3.4-8-11.6-10.3-7.9-2.2-13.7-1.6-14.9,2.9C1148.5,2166.7,1152.3,2170.8,1161.1,2173.3Z" transform="translate(0 10.3)"/><path class="cls-73" d="M1173,2130.3c10.9,3.3,15.7,9.1,13.5,16.2-1.9,6.2-9,8.7-19.6,5.7-10.7-3.2-15.2-9.6-13.3-16.1C1155.7,2129.2,1162.9,2127.2,1173,2130.3Zm-4.7,17.5c8.3,2.5,13.8,1.3,15-2.6,1.3-4.4-3.2-8.1-11.4-10.5-7.9-2.4-13.6-1.9-15,2.6C1155.8,2141,1159.6,2145.2,1168.3,2147.8Z" transform="translate(0 10.3)"/><path class="cls-73" d="M1188.2,2130.1a3.1,3.1,0,0,1-2.2-3.9,3,3,0,0,1,4-1.9,3.06,3.06,0,0,1,2.2,3.9A3,3,0,0,1,1188.2,2130.1Z" transform="translate(0 10.3)"/><path class="cls-73" d="M1184.5,2094.9c10.8,3.5,15.4,9.5,13.1,16.5-2,6.2-9.2,8.5-19.7,5.2-10.6-3.5-15-10-12.9-16.4C1167.2,2093.4,1174.4,2091.5,1184.5,2094.9Zm-5.2,17.3c8.2,2.7,13.8,1.7,15-2.2,1.4-4.4-3-8.2-11.1-10.8-7.8-2.6-13.6-2.2-15,2.2C1167,2105.2,1170.7,2109.4,1179.3,2112.2Z" transform="translate(0 10.3)"/><path class="cls-73" d="M1193.1,2069.8c10.7,3.7,15.2,9.8,12.8,16.8-2.1,6.2-9.4,8.3-19.8,4.8-10.6-3.7-14.8-10.3-12.6-16.7C1175.9,2068,1183.1,2066.3,1193.1,2069.8Zm-5.4,17.3c8.2,2.9,13.7,2,15.1-1.9,1.5-4.4-2.8-8.2-10.9-11-7.8-2.7-13.5-2.5-15.1,1.9C1175.5,2079.8,1179.1,2084.1,1187.7,2087.1Z" transform="translate(0 10.3)"/><path class="cls-73" d="M1202.3,2044.9c10.6,3.9,15.1,10,12.5,17-2.3,6.1-9.5,8.1-19.9,4.4-10.5-3.9-14.6-10.5-12.3-16.9C1185,2042.8,1192.3,2041.2,1202.3,2044.9Zm-5.8,17.2c8.1,3,13.7,2.2,15.1-1.7,1.6-4.3-2.7-8.3-10.7-11.2-7.7-2.8-13.5-2.7-15.1,1.7C1184.4,2054.6,1188,2059,1196.5,2062.1Z" transform="translate(0 10.3)"/><path class="cls-73" d="M867.4,2180.8v.1l1.9,6.8-3.8.1-2.4-8.5.9-4,34.9,7.8-1,4.6Z" transform="translate(0 10.3)"/><path class="cls-73" d="M873.9,2152.9v.1l1.8,6.8h-3.8l-2.2-8.6,1-4,34.8,8.4-1.1,4.6Z" transform="translate(0 10.3)"/><path class="cls-73" d="M905.8,2142a3.35,3.35,0,0,1-2.6-4.1,3.23,3.23,0,0,1,4.2-2.3,3.31,3.31,0,0,1,2.6,4.1A3.27,3.27,0,0,1,905.8,2142Z" transform="translate(0 10.3)"/><path class="cls-73" d="M886.1,2103.4l-3.5,13.2,8.5,3.7a25.3,25.3,0,0,1,.5-2.9,15.4,15.4,0,0,1,3.8-7,10.34,10.34,0,0,1,10.2-2.6c6.8,1.8,10.4,8.5,8.4,16a17.77,17.77,0,0,1-4.4,8.1l-3.3-2.1a16.68,16.68,0,0,0,3.9-6.9c1.2-4.4-.7-9-5.3-10.2s-8.5,1-10.3,7.9a48.49,48.49,0,0,0-.9,4.9l-16-6.6,4.4-16.6Z" transform="translate(0 10.3)"/><path class="cls-73" d="M907.4,2077.1c11.7,3.3,16.9,9.5,14.8,17.1-1.9,6.7-9.5,9.5-20.9,6.4-11.5-3.3-16.5-10.1-14.5-17C888.8,2076.3,896.4,2074,907.4,2077.1Zm-4.8,18.9c9,2.5,14.8,1.2,16-3,1.4-4.8-3.6-8.6-12.4-11.1-8.5-2.4-14.7-1.8-16,3C889.1,2089,893.3,2093.3,902.6,2096Z" transform="translate(0 10.3)"/><path class="cls-73" d="M915.6,2049.9c11.7,3.5,16.8,9.8,14.5,17.4-2,6.7-9.7,9.3-21,6-11.5-3.5-16.3-10.3-14.2-17.3C897,2048.8,904.6,2046.6,915.6,2049.9Zm-5.1,18.8c8.9,2.7,14.8,1.5,16.1-2.8,1.4-4.7-3.4-8.7-12.2-11.3-8.4-2.5-14.6-2-16.1,2.8C897.1,2061.4,901.2,2065.9,910.5,2068.7Z" transform="translate(0 10.3)"/><path class="cls-73" d="M931.8,2049.8a3.31,3.31,0,1,1,2-6.3,3.2,3.2,0,0,1,2.3,4.2A3.24,3.24,0,0,1,931.8,2049.8Z" transform="translate(0 10.3)"/><path class="cls-73" d="M927.8,2011.9c11.6,3.8,16.5,10.2,14.1,17.7-2.2,6.6-9.9,9.1-21.2,5.5s-16.1-10.7-13.8-17.6C909.2,2010.4,917,2008.4,927.8,2011.9Zm-5.5,18.7c8.8,2.9,14.8,1.8,16.1-2.4,1.5-4.7-3.2-8.8-11.9-11.6-8.4-2.7-14.6-2.4-16.1,2.4C909,2023,913,2027.6,922.3,2030.6Z" transform="translate(0 10.3)"/><path class="cls-73" d="M937,1985.1c11.5,4,16.4,10.4,13.8,17.9-2.3,6.6-10,8.9-21.2,5.2-11.3-3.9-15.9-11-13.5-17.8C918.5,1983.2,926.3,1981.4,937,1985.1Zm-5.8,18.5c8.8,3,14.7,2.1,16.2-2.1,1.6-4.7-3.1-8.8-11.7-11.8-8.3-2.9-14.5-2.6-16.2,2.1C918.1,1995.8,922,2000.5,931.2,2003.6Z" transform="translate(0 10.3)"/><path class="cls-73" d="M946.7,1958.4c11.4,4.2,16.2,10.7,13.5,18.2-2.4,6.6-10.2,8.8-21.3,4.8-11.3-4.1-15.7-11.2-13.2-18.1C928.2,1956.2,936,1954.5,946.7,1958.4Zm-6.1,18.4c8.7,3.2,14.7,2.3,16.2-1.8,1.7-4.7-2.9-8.9-11.5-12-8.3-3-14.5-2.9-16.2,1.8C927.6,1968.8,931.4,1973.5,940.6,1976.8Z" transform="translate(0 10.3)"/><path class="cls-73" d="M684.3,2140v.1l2.1,7.5-4.2.1-2.6-9.5,1-4.5,38.7,8.6-1.1,5.1Z" transform="translate(0 10.3)"/><path class="cls-73" d="M689.9,2094.2l3.4.8,31.1,25.3-1.3,5.4-30.1-25h-.1l-4.5,18.9-4.3-1Z" transform="translate(0 10.3)"/><path class="cls-73" d="M726.9,2097c-2.2-.6-3.4-2.4-2.8-4.5a3.84,3.84,0,0,1,7.4,2A3.64,3.64,0,0,1,726.9,2097Z" transform="translate(0 10.3)"/><path class="cls-73" d="M705,2054.1l-3.9,14.6,9.5,4.1a17.19,17.19,0,0,1,.6-3.2,16.28,16.28,0,0,1,4.3-7.7,11.19,11.19,0,0,1,11.3-2.9c7.5,2,11.5,9.4,9.3,17.8a18.74,18.74,0,0,1-4.9,8.9l-3.6-2.3a17.27,17.27,0,0,0,4.3-7.6c1.3-4.9-.8-9.9-5.9-11.3s-9.4,1.1-11.4,8.8a40.08,40.08,0,0,0-1,5.4l-17.8-7.4,4.9-18.4Z" transform="translate(0 10.3)"/><path class="cls-73" d="M728.6,2025c13,3.7,18.8,10.5,16.4,19-2.1,7.5-10.5,10.5-23.2,7.1-12.8-3.6-18.3-11.2-16.1-18.9C708,2024.1,716.5,2021.6,728.6,2025Zm-5.3,20.9c9.9,2.8,16.4,1.4,17.8-3.3,1.5-5.3-4-9.6-13.7-12.3-9.4-2.7-16.3-2-17.8,3.3C708.4,2038.1,712.9,2043,723.3,2045.9Z" transform="translate(0 10.3)"/><path class="cls-73" d="M737.7,1994.8c12.9,3.9,18.6,10.8,16.1,19.3-2.2,7.4-10.7,10.4-23.3,6.7s-18.1-11.5-15.8-19.2C717.1,1993.6,725.6,1991.2,737.7,1994.8Zm-5.6,20.8c9.9,3,16.4,1.6,17.8-3,1.6-5.3-3.8-9.6-13.5-12.6-9.4-2.8-16.2-2.3-17.8,3C717.2,2007.6,721.7,2012.5,732.1,2015.6Z" transform="translate(0 10.3)"/><path class="cls-73" d="M755.7,1994.7a3.66,3.66,0,0,1-2.6-4.7,3.88,3.88,0,0,1,7.4,2.3A3.73,3.73,0,0,1,755.7,1994.7Z" transform="translate(0 10.3)"/><path class="cls-73" d="M751.3,1952.7c12.8,4.2,18.4,11.3,15.6,19.6-2.4,7.4-10.9,10.1-23.5,6.1s-17.8-11.9-15.3-19.5C730.7,1951,739.2,1948.8,751.3,1952.7Zm-6.2,20.7c9.8,3.2,16.4,2,17.9-2.6,1.7-5.2-3.6-9.7-13.2-12.9-9.3-3-16.2-2.6-17.9,2.6C730.5,1965,734.9,1970,745.1,1973.4Z" transform="translate(0 10.3)"/><path class="cls-73" d="M761.5,1922.9c12.8,4.4,18.2,11.6,15.3,19.9-2.5,7.3-11.1,9.9-23.6,5.8-12.6-4.3-17.6-12.2-15-19.8C740.9,1920.9,749.5,1918.8,761.5,1922.9Zm-6.5,20.6c9.8,3.4,16.3,2.3,17.9-2.3,1.8-5.2-3.4-9.8-13-13.1-9.2-3.2-16.1-2.9-17.9,2.3C740.5,1934.9,744.8,1940,755,1943.5Z" transform="translate(0 10.3)"/><path class="cls-73" d="M772.2,1893.3c12.7,4.6,18,11.9,15,20.1-2.7,7.3-11.3,9.7-23.7,5.4-12.5-4.6-17.4-12.5-14.7-20C751.7,1890.9,760.4,1889,772.2,1893.3Zm-6.8,20.5c9.7,3.5,16.3,2.6,18-2,1.9-5.2-3.2-9.8-12.8-13.3-9.2-3.3-16.1-3.2-18,2C751.1,1904.9,755.3,1910.1,765.4,1913.8Z" transform="translate(0 10.3)"/><line class="cls-1" x1="2035.4" y1="2418.7" x2="948.6" y2="2082.6"/></g><g id="Countrys_ring" data-name="Countrys ring"><path class="cls-74" d="M3961.3,1162.4c-2.2-.7-5.8-2.9-9.5-6.6-8.6-8.6-9.6-20.6.4-30.6,9.6-9.6,22.6-9.5,32,0,3.8,3.8,5.4,7,5.9,8.6l-4.2,2.3a20.76,20.76,0,0,0-4.9-7.5c-7.2-7.2-16.5-7.4-24.6.6-7.5,7.5-8,16.6-.6,24.1a21.84,21.84,0,0,0,7.7,5.2Z" transform="translate(0 10.3)"/><path class="cls-74" d="M3979.8,1164.1l-12.9,6.2-4-4.2,41.4-19.3,4.7,4.9-21,40.6-4.1-4.3,6.6-12.8Zm13,7.2,6.1-11.7c1.4-2.6,2.8-4.9,4.1-7.1l-.1-.1c-2.3,1.3-4.7,2.6-7.2,3.8l-12,5.6Z" transform="translate(0 10.3)"/><path class="cls-74" d="M3992.2,1196.7l31.8-29.3,4.1,4.5-6.7,25a122.55,122.55,0,0,1-5.1,15.2l.1.1c3.9-4.3,7.7-7.9,12.7-12.5l13.3-12.3,3.6,3.9-31.8,29.3-3.8-4.2,6.9-25a125.6,125.6,0,0,1,5.2-15.7l-.2-.1c-3.8,3.9-7.5,7.5-12.8,12.4l-13.6,12.5Z" transform="translate(0 10.3)"/><path class="cls-74" d="M4035.4,1224l-13.2,5.6-3.8-4.3,42.2-17.6,4.5,5.1-22.7,39.7-3.9-4.5,7.1-12.5Zm12.6,7.7,6.5-11.4c1.5-2.6,3-4.8,4.4-6.9l-.1-.1c-2.3,1.2-4.8,2.4-7.3,3.5l-12.2,5.1Z" transform="translate(0 10.3)"/><path class="cls-74" d="M4078.9,1229.5a84.81,84.81,0,0,1,8.4,8.5c5.2,6.1,7.5,11.7,7.2,16.9s-2.6,10.2-7.9,14.7-11.2,6.6-16.9,6.1-11.7-4.2-17.1-10.6a80.34,80.34,0,0,1-6.2-8.1Zm-25.6,29a33.15,33.15,0,0,0,3.4,4.5c7.7,9.1,17,9.7,25.9,2.2,7.8-6.5,9-15.1,1.4-24.2a32,32,0,0,0-4.7-4.6Z" transform="translate(0 10.3)"/><path class="cls-74" d="M4088.1,1285.8l-13.4,5.1-3.6-4.5,42.8-15.9,4.3,5.2-24.3,38.7-3.8-4.6,7.6-12.2Zm12.4,8.2,7-11.1c1.6-2.5,3.2-4.6,4.7-6.7l-.1-.1c-2.4,1.1-4.9,2.2-7.5,3.2l-12.4,4.6Z" transform="translate(0 10.3)"/><path class="cls-74" d="M4542.6,2222a87.06,87.06,0,0,1,2.7,11.6c1.2,7.9.3,13.9-2.6,18.1s-7.5,7.3-14.4,8.4-13-.2-17.6-3.6-7.8-9.6-9.1-17.9a87.67,87.67,0,0,1-1-10.1Zm-36.9,11.4a44.17,44.17,0,0,0,.5,5.6c1.8,11.8,9.4,17.2,21,15.4,10.1-1.5,15.6-8.2,13.8-19.9a25.45,25.45,0,0,0-1.6-6.4Z" transform="translate(0 10.3)"/><path class="cls-74" d="M4530,2290l-2.3-16.7-15.5,2.1,2.5,18.6-4.6.6-3.3-24.1,42.9-5.8,3.1,23.2-4.6.6-2.4-17.6-13.5,1.8,2.3,16.7Z" transform="translate(0 10.3)"/><path class="cls-74" d="M4511,2301.7l43-5,.7,6.1-20.1,16.3a111.46,111.46,0,0,1-13.1,9.3l.1.1c5.7-1.2,10.9-1.9,17.6-2.7l18-2.1.6,5.2-43,5-.7-5.6,20.2-16.2a125.18,125.18,0,0,1,13.4-9.7l-.1-.2c-5.4,1-10.5,1.7-17.7,2.5l-18.4,2.1Z" transform="translate(0 10.3)"/><path class="cls-74" d="M4538.1,2377.9c6-.9,13.2-1.9,18.5-2.4v-.2c-5.2-1-10.7-2.3-16.9-3.9l-21.6-5.7-.4-4.2,19.9-8.9c5.9-2.6,11.3-4.8,16.3-6.5v-.1c-5.4.4-12.6.7-19.1.9l-18.6.6-.5-5.3,43.3-1,.7,7.1-20.2,9.3c-5.1,2.3-9.7,4.2-14.1,5.7v.2c4.4.7,9.3,1.8,14.9,3.2l21.5,5.7.7,7.1-42.8,6.7-.5-5.4Z" transform="translate(0 10.3)"/><path class="cls-74" d="M4534.4,2400l-13.9-3.5-.4-5.8,44.2,11.7.5,6.7-42.1,17.7-.4-6,13.2-5.6Zm5.3,13.8,12.1-5.1c2.8-1.2,5.3-2,7.7-2.8v-.1c-2.6-.5-5.3-1-8-1.6l-12.8-3.4Z" transform="translate(0 10.3)"/><path class="cls-74" d="M4565.6,2430.8a60.61,60.61,0,0,1,1.4,10.7c.3,6-.6,9.9-2.9,12.7a10.75,10.75,0,0,1-8,3.8,11.23,11.23,0,0,1-11.4-7.6h-.2c-1,3.4-4,5.5-8.4,6.8-6,1.7-10.1,3-11.7,3.9l-.3-5.8c1.2-.8,4.8-1.9,10.2-3.4,5.9-1.6,8-4,8-9.1l-.3-5.3-18.7,1-.3-5.6Zm-19.4,6.5.3,5.7c.3,6,3.8,9.6,8.7,9.3,5.6-.3,7.8-4.4,7.6-10.3a21.37,21.37,0,0,0-.8-5.5Z" transform="translate(0 10.3)"/><path class="cls-74" d="M4567.9,2465.8l.2,5.6-20.8.7v.2c1.7,1.1,3.3,2.2,4.7,3.2l16.7,12.7.2,6.9-18.9-15-24.3,17.7-.2-6.6,20.8-14.9-4.9-3.9-16.5.6-.2-5.6Z" transform="translate(0 10.3)"/><path class="cls-74" d="M4508.2,3041.6l-24.8-6.3c-9.4-2.4-14.4.7-15.9,6.3-1.6,6.2,1.5,11.2,10.8,13.6l24.8,6.3-1.4,5.5-24.4-6.2c-12.9-3.3-16.4-11.4-14.1-20.5,2.2-8.6,8.8-13.8,21.8-10.5l24.7,6.3Z" transform="translate(0 10.3)"/><path class="cls-74" d="M4457.3,3065.5l41.7,11.6-1.6,5.9-24.8,7.5a128.06,128.06,0,0,1-15.6,3.7v.1c5.7,1.1,10.8,2.3,17.3,4.1l17.4,4.9-1.4,5.1-41.7-11.6,1.5-5.4,24.8-7.3a129.47,129.47,0,0,1,16.1-3.9v-.2c-5.3-1.2-10.4-2.4-17.3-4.4l-17.8-5Z" transform="translate(0 10.3)"/><path class="cls-74" d="M4485.8,3123.5l-41.5-12.2,1.6-5.4,41.5,12.2Z" transform="translate(0 10.3)"/><path class="cls-74" d="M4476,3139.7l3.9-12.6,4.5,1.4-9.4,30.6-4.5-1.4,3.9-12.6-36.8-11.3,1.7-5.4Z" transform="translate(0 10.3)"/><path class="cls-74" d="M4444.6,3178.4l5.2-16-14.8-4.8-5.8,17.8-4.5-1.4,7.5-23.1,41.1,13.4-7.2,22.2-4.5-1.4,5.5-16.9-13-4.2-5.2,16Z" transform="translate(0 10.3)"/><path class="cls-74" d="M4462.8,3194.6a82.09,82.09,0,0,1-3,11.5c-2.6,7.6-6.2,12.4-10.8,14.8s-10.1,3-16.7.7-11.4-6.3-13.9-11.4-2.4-12.2.4-20.1a86.2,86.2,0,0,1,3.8-9.4Zm-38-7.2a39.74,39.74,0,0,0-2.1,5.2c-3.9,11.3.3,19.6,11.3,23.4,9.6,3.4,17.6,0,21.5-11.1a36.6,36.6,0,0,0,1.6-6.4Z" transform="translate(0 10.3)"/><path class="cls-74" d="M4410.4,3235.3a20.52,20.52,0,0,0-6.2,8.4c-2,5.3-.3,9.5,3.7,11.1,3.8,1.4,6.8.1,10.9-4.6,4.8-5.7,9.8-8.5,15.5-6.4,6.3,2.4,9,9.3,6.1,17.2-1.6,4.1-3.6,6.8-5.3,8.2l-3.7-3a17.93,17.93,0,0,0,4.8-7c2.1-5.5-.4-8.9-3.2-9.9-3.8-1.4-6.6.3-10.8,5.1-5.2,5.9-9.8,8.1-15.8,5.9-6.2-2.3-9.9-9-6.3-18.5,1.5-3.9,4.2-7.7,6.5-9.4Z" transform="translate(0 10.3)"/><path class="cls-74" d="M4425.5,3284.8l4.8-12.2,4.4,1.7-11.7,29.8-4.4-1.7,4.8-12.3-35.8-14.1,2.1-5.3Z" transform="translate(0 10.3)"/><path class="cls-74" d="M4392.7,3299.8l-10.9-9.3,2.2-5.3,34.4,30-2.6,6.2-45.6-2.8,2.3-5.5,14.3.9Zm-1.3,14.8,13.1.8c3,.2,5.6.6,8.2.9v-.1c-2.1-1.6-4.3-3.2-6.4-5l-10-8.7Z" transform="translate(0 10.3)"/><path class="cls-74" d="M4401.9,3342.5l5.2-12.1,4.4,1.9-12.6,29.4-4.4-1.9,5.2-12.1-35.4-15.2,2.2-5.2Z" transform="translate(0 10.3)"/><path class="cls-74" d="M4366.5,3377.6l6.9-15.3-14.2-6.4-7.7,17.1-4.3-1.9,10-22.2,39.5,17.7-9.6,21.3-4.3-1.9,7.3-16.2-12.5-5.6-6.9,15.3Z" transform="translate(0 10.3)"/><path class="cls-74" d="M4350.7,3379.7a19.14,19.14,0,0,0-6.8,7.9c-2.4,5.2-1.1,9.5,2.8,11.3,3.7,1.7,6.7.6,11.2-3.7,5.3-5.3,10.4-7.7,15.9-5.1,6.1,2.9,8.3,10,4.7,17.6a20.33,20.33,0,0,1-6,7.8l-3.5-3.3a16.75,16.75,0,0,0,5.3-6.6c2.5-5.3.3-8.9-2.4-10.1-3.7-1.7-6.6-.2-11.2,4.3-5.7,5.4-10.4,7.3-16.2,4.6-6-2.8-9.2-9.8-4.9-19,1.8-3.8,4.8-7.4,7.2-8.8Z" transform="translate(0 10.3)"/><path class="cls-74" d="M3741.9,4133.7a20.24,20.24,0,0,0-9.7,3.7c-4.6,3.4-5.5,7.8-2.9,11.3,2.4,3.2,5.6,3.7,11.7,2,7.2-2.2,12.8-1.9,16.5,3,4,5.4,2.5,12.8-4.2,17.8a20.52,20.52,0,0,1-8.9,4l-1.5-4.6a16.23,16.23,0,0,0,7.8-3.3c4.7-3.5,4.4-7.7,2.7-10.1-2.4-3.2-5.7-3.3-11.9-1.6-7.6,2.1-12.6,1.5-16.4-3.6-4-5.4-3.5-12.9,4.7-19a22.6,22.6,0,0,1,10.5-4.4Z" transform="translate(0 10.3)"/><path class="cls-74" d="M3706.2,4151.5l34,28.9-4.8,3.4-16.9-14.9c-4.2-3.7-8.2-7.4-11.3-10.3l-.1.1c1.9,3.9,3.8,8.9,5.8,14.3l7.9,21.1-4.8,3.4-17-14.8c-4-3.5-7.9-7-11-10.3l-.1.1c2,4.4,3.8,9,5.8,14.2l8,21.1-4.7,3.3-15.1-42.4,4.8-3.4,17.5,15.2a131,131,0,0,1,10.5,9.9l.1-.1c-1.9-4-3.5-8-5.5-13.4l-8-21.9Z" transform="translate(0 10.3)"/><path class="cls-74" d="M3660.6,4208l13.9-9.4-8.8-12.9-15.5,10.5-2.6-3.9,20.1-13.7,24.3,35.8-19.3,13.1-2.6-3.9,14.7-10-7.7-11.3-13.9,9.4Z" transform="translate(0 10.3)"/><path class="cls-74" d="M3665.1,4231.9a73.24,73.24,0,0,1-9.5,7.2c-6.7,4.4-12.5,5.9-17.6,5.1s-9.8-3.8-13.6-9.7-5.2-11.9-4-17.5,5.6-11.1,12.6-15.7a80.22,80.22,0,0,1,8.8-5.1Zm-25.6-29a38.59,38.59,0,0,0-4.9,2.8c-10,6.5-11.8,15.7-5.4,25.4,5.5,8.6,13.9,10.9,23.8,4.4a34.73,34.73,0,0,0,5.2-4.1Z" transform="translate(0 10.3)"/><path class="cls-74" d="M3597.8,4248.4l14.3-8.9-8.3-13.2-15.9,9.9-2.5-4,20.6-12.9,23,36.7-19.8,12.4-2.5-4,15.1-9.4-7.3-11.6-14.3,8.9Z" transform="translate(0 10.3)"/><path class="cls-74" d="M3579.4,4235.9l22.3,37.1-5.2,3.1-23.2-11.6a108.86,108.86,0,0,1-13.9-8.1l-.1.1c3.4,4.7,6.2,9.1,9.7,14.9l9.3,15.5-4.5,2.7-22.3-37.1,4.8-2.9,23.1,11.7a139.45,139.45,0,0,1,14.4,8.2l.1-.2c-3.1-4.5-5.9-8.9-9.6-15.1l-9.5-15.8Z" transform="translate(0 10.3)"/><path class="cls-74" d="M1636.6,4351.9a55,55,0,0,1-9.9-4.1c-5.3-2.7-8.2-5.5-9.5-8.9a10.81,10.81,0,0,1,.7-8.9c2.6-5.1,7.5-6.8,12.3-6.1l.1-.2c-2.4-2.6-2.8-6.2-1.7-10.7,1.5-6,2.5-10.2,2.4-12.1l5.1,2.6c.1,1.4-.8,5.2-2.1,10.5-1.6,5.9-.6,8.9,3.9,11.4l4.7,2.4,8.6-16.7,5,2.5Zm4-20.1-5.1-2.6c-5.3-2.7-10.2-1.5-12.4,2.9-2.5,5-.1,9,5.2,11.7a27.1,27.1,0,0,0,5.1,2.1Z" transform="translate(0 10.3)"/><path class="cls-74" d="M1600.1,4333.7l12.1-22.6c4.6-8.5,2.7-14.2-2.3-16.9-5.7-3-11.3-1.3-15.8,7.2L1582,4324l-5-2.7,11.9-22.2c6.3-11.7,15-13.2,23.3-8.8,7.8,4.2,11.3,11.8,4.9,23.6l-12.1,22.4Z" transform="translate(0 10.3)"/><path class="cls-74" d="M1586.5,4284.8a19.81,19.81,0,0,0-7.3-7.4c-5-2.8-9.4-1.8-11.5,2-2,3.5-1.1,6.7,2.9,11.5,4.9,5.6,6.9,11,4,16.3-3.3,5.9-10.6,7.5-17.9,3.4-3.9-2.2-6.2-4.6-7.3-6.5l3.6-3.2a16.65,16.65,0,0,0,6.2,5.8c5.1,2.9,8.8.9,10.3-1.7,2-3.5.7-6.5-3.4-11.5-5-6-6.5-10.9-3.4-16.5,3.3-5.8,10.4-8.4,19.3-3.4,3.6,2,7,5.3,8.3,7.8Z" transform="translate(0 10.3)"/><path class="cls-74" d="M1540,4300.4l-4.8-2.8,19.4-33.3-16-9.3,2.4-4,20.8,12.1Z" transform="translate(0 10.3)"/><path class="cls-74" d="M1522.7,4255.8l10.9-9.3,4.9,3-35,29.4-5.8-3.5,9.8-44.6,5.1,3.1-3.1,14Zm-14.4-3.6-2.8,12.8a74.72,74.72,0,0,1-2.2,7.9l.1.1c1.9-1.9,3.8-3.7,5.9-5.6l10.1-8.5Z" transform="translate(0 10.3)"/><path class="cls-74" d="M1502.4,4227.5l-23.2,36.5-5.1-3.3v-25.9a110.58,110.58,0,0,1,1-16h-.1c-2.7,5.2-5.4,9.7-9,15.4l-9.7,15.3-4.4-2.8,23.2-36.5,4.8,3-.2,25.9a124.46,124.46,0,0,1-.9,16.5h.2c2.7-4.8,5.3-9.2,9.2-15.3l9.9-15.6Z" transform="translate(0 10.3)"/><path class="cls-74" d="M1443.4,4240.4a95.46,95.46,0,0,1-10.4-5.8c-6.7-4.4-10.4-9.2-11.6-14.2s-.3-10.5,3.5-16.3,8.9-9.5,14.5-10.5,12.4.8,19.4,5.4c3.3,2.2,6,4.2,8.2,6Zm16.5-34.9a32.59,32.59,0,0,0-4.5-3.4c-9.9-6.6-19-4.6-25.5,5.1-5.7,8.5-4.5,17.1,5.3,23.6a28.27,28.27,0,0,0,5.8,3.1Z" transform="translate(0 10.3)"/><path class="cls-74" d="M876.1,1491.2l-36.4-23.4,3.3-5.1,25.9.2a109.66,109.66,0,0,1,16,1.1v-.1c-5.1-2.7-9.6-5.4-15.3-9.1l-15.2-9.8,2.9-4.4,36.4,23.4-3.1,4.7-25.9-.3a143.42,143.42,0,0,1-16.5-1v.2c4.8,2.7,9.2,5.4,15.2,9.3l15.5,10Z" transform="translate(0 10.3)"/><path class="cls-74" d="M894.6,1426.1l-9.4,14,12.9,8.7,10.4-15.6,3.9,2.6L899,1456l-35.9-24.1,13-19.4,3.9,2.6-9.9,14.8,11.4,7.6,9.4-14Z" transform="translate(0 10.3)"/><path class="cls-74" d="M881.5,1405.5a68.35,68.35,0,0,1,6.1-10.2c4.6-6.6,9.4-10.2,14.5-11.3s10.5-.1,16.2,3.9,9.3,9.1,10.2,14.7-1,12.4-5.9,19.2a81,81,0,0,1-6.2,8Zm34.6,17.3a52,52,0,0,0,3.5-4.4c6.8-9.8,5.1-18.9-4.5-25.6-8.3-5.9-17-4.9-23.7,4.8a31.32,31.32,0,0,0-3.3,5.7Z" transform="translate(0 10.3)"/><path class="cls-74" d="M937.8,1365.1l-9.9,13.6,12.6,9.2,11-15.2,3.8,2.8L941,1395.2l-35-25.4,13.7-18.9,3.8,2.8L913,1368.1l11.1,8,9.9-13.6Z" transform="translate(0 10.3)"/><path class="cls-74" d="M925.4,1344.1a57.48,57.48,0,0,1,5.7-9.1c3.6-4.8,6.8-7.2,10.3-7.9a10.69,10.69,0,0,1,8.6,2.2c4.6,3.4,5.4,8.6,3.9,13.2l.2.1c2.9-2,6.6-1.7,10.8.2,5.7,2.5,9.6,4.2,11.5,4.5l-3.5,4.6c-1.4-.2-5-1.6-10-3.9-5.5-2.6-8.7-2.1-11.9,1.9l-3.2,4.2,15,11.3-3.4,4.5Zm19.1,7.4,3.4-4.6c3.6-4.8,3.3-9.8-.7-12.7-4.5-3.4-8.8-1.6-12.4,3.1a22.67,22.67,0,0,0-2.9,4.7Z" transform="translate(0 10.3)"/><path class="cls-74" d="M946.1,1315.8l3.4-4.4,30.4,23.7,11.4-14.6,3.7,2.9-14.8,19Z" transform="translate(0 10.3)"/><path class="cls-74" d="M992.6,1304.7l7.8,12-3.6,4.5-24.4-38.6,4.2-5.2,42.9,15.7-3.8,4.6-13.5-5Zm5.5-13.8-12.3-4.5c-2.8-1-5.2-2.1-7.6-3.2l-.1.1c1.6,2.1,3.2,4.3,4.7,6.6l7.1,11.2Z" transform="translate(0 10.3)"/><path class="cls-74" d="M1023.4,1288.3l-33.1-27.9,3.9-4.7,25.7,3.5a122.9,122.9,0,0,1,15.8,3.1v-.1a170.85,170.85,0,0,1-14-11l-13.8-11.7,3.4-4,33.1,27.9-3.6,4.3-25.6-3.6a152.15,152.15,0,0,1-16.3-3.1l-.1.2c4.4,3.3,8.4,6.5,13.9,11.1l14.1,11.9Z" transform="translate(0 10.3)"/><path class="cls-74" d="M1018.5,1228a74.42,74.42,0,0,1,7.2-9.5c5.3-6,10.5-9.1,15.6-9.6s10.4,1.1,15.7,5.7,8.2,10.1,8.5,15.8-2.4,12.2-8,18.5a84.1,84.1,0,0,1-7.1,7.3Zm32.4,21.1a49.79,49.79,0,0,0,4-4c7.9-9,7.1-18.2-1.6-26-7.6-6.8-16.3-6.7-24.1,2.1a32.52,32.52,0,0,0-3.9,5.3Z" transform="translate(0 10.3)"/><path class="cls-74" d="M2241.8,550.2l23-3.4.7,4.6L2248,554l2.1,14.2,16.2-2.4.7,4.6-16.2,2.4,2.9,19.4-5.5.8Z" transform="translate(0 10.3)"/><path class="cls-74" d="M2278.7,544.9l5.8,42.9-5.5.8-5.8-42.9Z" transform="translate(0 10.3)"/><path class="cls-74" d="M2294,586.4l-5.2-42.9,6.1-.7,16.4,20.1a126,126,0,0,1,9.4,13l.1-.1c-1.2-5.7-2-10.9-2.8-17.6l-2.2-18,5.2-.6,5.2,42.9-5.6.7-16.3-20.1a142.32,142.32,0,0,1-9.8-13.4l-.2.1c1,5.4,1.7,10.5,2.6,17.7l2.2,18.4Z" transform="translate(0 10.3)"/><path class="cls-74" d="M2331.4,538.5l5.6-.6,3.9,38.4,18.4-1.9.5,4.7-23.9,2.4Z" transform="translate(0 10.3)"/><path class="cls-74" d="M2371.5,564.4l-3.3,13.9-5.8.5,11-44.3,6.7-.6,18.3,41.9-5.9.5-5.7-13.2Zm13.8-5.5-5.3-12c-1.2-2.7-2-5.2-2.9-7.7h-.1c-.4,2.6-.9,5.3-1.5,8l-3.2,12.8Z" transform="translate(0 10.3)"/><path class="cls-74" d="M2404.7,575.3l-2.7-43.2,6.1-.4,15.2,21a123.59,123.59,0,0,1,8.6,13.5l.1-.1c-.9-5.7-1.3-11-1.8-17.7l-1.1-18.1,5.3-.3,2.7,43.2-5.6.4-15.1-21a148.13,148.13,0,0,1-9-13.9l-.2.1c.7,5.4,1.1,10.6,1.6,17.8L2410,575Z" transform="translate(0 10.3)"/><path class="cls-74" d="M2444.8,530.1a76.46,76.46,0,0,1,11.8-1.4c8-.3,13.8,1.3,17.7,4.7s6.4,8.3,6.7,15.3-1.6,12.9-5.5,17.1-10.4,6.7-18.8,7a84,84,0,0,1-10.2-.1Zm7.2,38a34.19,34.19,0,0,0,5.7.1c11.9-.5,18.1-7.4,17.6-19.1-.4-10.2-6.4-16.4-18.2-15.9a27.86,27.86,0,0,0-6.5.9Z" transform="translate(0 10.3)"/><path class="cls-74" d="M2818,575.4l-6.3,12.9-5.7-.8,20.3-40.9,6.7.9,8.9,44.8-5.9-.8-2.8-14.1Zm14.6-2.4-2.5-12.9c-.6-2.9-.9-5.6-1.2-8.1h-.1c-1,2.5-2,5-3.2,7.5l-5.9,11.8Z" transform="translate(0 10.3)"/><path class="cls-74" d="M2858.7,551.3l-4.2,25.3c-1.6,9.6,2,14.3,7.7,15.3,6.3,1.1,11.1-2.4,12.7-11.9l4.2-25.3,5.6.9-4.2,24.9c-2.2,13.1-10,17.3-19.2,15.8-8.7-1.5-14.5-7.6-12.3-20.8l4.2-25.1Z" transform="translate(0 10.3)"/><path class="cls-74" d="M2887.3,593a18.83,18.83,0,0,0,9.4,4.5c5.6,1,9.4-1.4,10.2-5.7.7-4-1.2-6.7-6.5-9.9-6.5-3.7-10.2-8.1-9.1-14.1,1.2-6.6,7.6-10.6,15.8-9.1a19.57,19.57,0,0,1,9,3.8l-2.3,4.2a17.84,17.84,0,0,0-7.7-3.5c-5.8-1-8.6,2-9.2,4.9-.7,4,1.5,6.4,7,9.7,6.7,4.1,9.7,8.2,8.6,14.5-1.2,6.6-7.1,11.4-17.1,9.6-4.1-.7-8.4-2.7-10.4-4.7Z" transform="translate(0 10.3)"/><path class="cls-74" d="M2933.3,569.2l-12.9-2.5.9-4.7,31.4,6.1-.9,4.7-13-2.5-7.4,37.8-5.5-1.1Z" transform="translate(0 10.3)"/><path class="cls-74" d="M2957.9,569.8a56.35,56.35,0,0,1,10.7,1.3c5.8,1.2,9.4,3.1,11.5,6.1a10.8,10.8,0,0,1,1.6,8.7c-1.2,5.6-5.5,8.5-10.3,9.1v.2c3,1.8,4.3,5.2,4.4,9.9.1,6.2.3,10.5.8,12.3l-5.7-1.2c-.4-1.3-.6-5.2-.7-10.7,0-6.1-1.8-8.8-6.7-10l-5.1-1.1-3.9,18.3-5.5-1.2Zm1.4,20.5,5.6,1.2c5.8,1.2,10.2-1.2,11.3-6,1.2-5.5-2.3-8.7-8.1-10a18.91,18.91,0,0,0-5.5-.6Z" transform="translate(0 10.3)"/><path class="cls-74" d="M2997.6,577.9l-9.5,42.2-5.4-1.2,9.5-42.2Z" transform="translate(0 10.3)"/><path class="cls-74" d="M3007.5,610.6l-7.5,12.2-5.6-1.3,24.4-38.6,6.6,1.6,4.3,45.5-5.8-1.4-1.3-14.3Zm14.8-1-1.2-13.1a78.64,78.64,0,0,1-.3-8.2h-.1c-1.2,2.3-2.5,4.7-4,7.1l-7,11.2Z" transform="translate(0 10.3)"/></g><g id="Value_poitns" data-name="Value poitns"><circle class="cls-75" cx="2594.2" cy="1627" r="7.5"/><circle class="cls-75" cx="2638.3" cy="1783.2" r="7.5"/><circle class="cls-75" cx="2695.4" cy="1675.5" r="7.5"/><circle class="cls-75" cx="2757.9" cy="1684.5" r="7.5"/><circle class="cls-76" cx="3665.1" cy="1324.9" r="7.5"/><circle class="cls-76" cx="3389.4" cy="2172.4" r="7.5"/><circle class="cls-77" cx="3571.7" cy="2322" r="7.5"/><circle class="cls-77" cx="3621.6" cy="2499.3" r="7.5"/><circle class="cls-78" cx="4024" cy="3136.6" r="7.5"/><circle class="cls-79" cx="3269.9" cy="3403.1" r="7.5"/><circle class="cls-79" cx="3043.3" cy="3522.4" r="7.5"/><circle class="cls-80" cx="2011.2" cy="4350.2" r="7.5"/><circle class="cls-80" cx="1554.5" cy="3175.7" r="7.5"/><circle class="cls-81" cx="777.7" cy="2037.4" r="7.5"/><circle class="cls-81" cx="1913.2" cy="1692.2" r="7.5"/><circle class="cls-81" cx="2121.9" cy="1728.8" r="7.5"/><circle class="cls-81" cx="2203.1" cy="1714.6" r="7.5"/><circle class="cls-81" cx="2293.6" cy="1602" r="7.5"/><circle class="cls-82" cx="2423.1" cy="1677" r="7.5"/><circle class="cls-80" cx="1698.6" cy="2873.3" r="7.5"/><circle class="cls-79" cx="2830.3" cy="3410.6" r="7.5"/><circle class="cls-79" cx="2845.3" cy="3355.4" r="7.5"/><circle class="cls-77" cx="3404.4" cy="2617.8" r="7.5"/><circle class="cls-76" cx="3321.4" cy="2252.4" r="7.5"/><circle class="cls-76" cx="3238.8" cy="2307.1" r="3.4"/><circle class="cls-75" cx="2806.7" cy="1852.7" r="3.4"/><circle class="cls-82" cx="2548.2" cy="1771.8" r="3.4"/><circle class="cls-82" cx="2401.7" cy="1735.6" r="3.4"/><circle class="cls-82" cx="2468.2" cy="1794" r="3.4"/><circle class="cls-82" cx="2491.5" cy="1892.6" r="3.4"/><circle class="cls-82" cx="2505.4" cy="1926.5" r="3.4"/><circle class="cls-82" cx="2518.5" cy="1950.2" r="3.4"/><circle class="cls-82" cx="2529.2" cy="1952.2" r="3.4"/><circle class="cls-82" cx="2539.6" cy="1952.2" r="3.4"/><circle class="cls-75" cx="2772.6" cy="1982.8" r="3.4"/><circle class="cls-76" cx="3177.4" cy="2342.9" r="3.4"/><circle class="cls-76" cx="3172.2" cy="2357.1" r="3.4"/><circle class="cls-77" cx="3262.4" cy="2630.7" r="3.4"/><circle class="cls-78" cx="3127.2" cy="3001.8" r="3.4"/><circle class="cls-78" cx="3158.2" cy="3041.3" r="3.4"/><circle class="cls-80" cx="1815.7" cy="2782.8" r="3.4"/><circle class="cls-80" cx="1859.9" cy="2755.4" r="3.4"/><circle class="cls-79" cx="2761.9" cy="3259.7" r="3.4"/><circle class="cls-79" cx="2749.7" cy="3262.6" r="3.4"/><circle class="cls-78" cx="3065.4" cy="2982.2" r="3.4"/><circle class="cls-78" cx="3056.1" cy="2990" r="3.4"/><circle class="cls-78" cx="3046.6" cy="2997.3" r="3.4"/><circle class="cls-78" cx="3002.6" cy="2972.6" r="3.4"/><circle class="cls-77" cx="3168.8" cy="2633.1" r="3.4"/><circle class="cls-75" cx="2815.3" cy="1764.3" r="7.5"/><circle class="cls-75" cx="2771" cy="1813.2" r="7.5"/></g><g id="Country_lines_circle" data-name="Country lines circle"><line class="cls-83" x1="2555.7" y1="742.4" x2="2555.7" y2="526"/><line class="cls-83" x1="3203.9" y1="858.9" x2="3274.8" y2="654.4"/><line class="cls-83" x1="4291.4" y1="2004.6" x2="4497.5" y2="1938.9"/><line class="cls-83" x1="4366.3" y1="2780.9" x2="4581.3" y2="2805.8"/><line class="cls-83" x1="3032.4" y1="4323.7" x2="3092.5" y2="4531.6"/><line class="cls-83" x1="3891.3" y1="3804.6" x2="4053.8" y2="3947.4"/><line class="cls-83" x1="2170" y1="562.4" x2="2210.5" y2="775"/><line class="cls-83" x1="795.8" y1="3037.3" x2="585.9" y2="3089.7"/></g><g id="Laag_16" data-name="Laag 16"><path id="XMLID_25_" class="cls-1" d="M3599.7,2735c-99,576.8-646.8,964.1-1223.6,865.1S1412,2953.3,1511,2376.5s646.8-964.1,1223.6-865.1S3698.7,2158.3,3599.7,2735Z" transform="translate(0 10.3)"/><text class="cls-84" y="10.3"> </text><path id="XMLID_50_" class="cls-1" d="M3785.3,2766C3668.8,3444.9,3024,3900.7,2345.1,3784.2S1210.4,3022.8,1326.9,2344s761.3-1134.7,1440.2-1018.2S3901.8,2087.1,3785.3,2766Z" transform="translate(0 10.3)"/><text class="cls-84" y="10.3"> </text><path id="XMLID_56_" class="cls-1" d="M3214.4,2668.9c-62.5,364-408.2,608.4-772.2,545.9s-608.4-408.2-545.9-772.2,408.2-608.4,772.2-545.9S3276.8,2304.9,3214.4,2668.9Z" transform="translate(0 10.3)"/><text class="cls-84" y="10.3"> </text><path id="XMLID_81_" class="cls-1" d="M3411.4,2702.6c-81.1,472.4-529.8,789.6-1002.1,708.5S1619.7,2881.3,1700.8,2409s529.8-789.6,1002.1-708.5S3492.5,2230.2,3411.4,2702.6Z" transform="translate(0 10.3)"/><text class="cls-84" y="10.3"> </text><path id="XMLID_120_" class="cls-1" d="M3983.3,2801.6c-135.4,788.7-884.5,1318.3-1673.2,1183s-1318.3-884.5-1183-1673.2,884.5-1318.3,1673.2-1183S4118.7,2012.9,3983.3,2801.6Z" transform="translate(0 10.3)"/><text class="cls-84" y="10.3"> </text><path id="XMLID_122_" class="cls-1" d="M4179.2,2834.5c-153.9,896.9-1005.8,1499.1-1902.6,1345.1S777.5,3173.9,931.4,2277,1937.2,777.9,2834.1,931.9,4333.2,1937.7,4179.2,2834.5Z" transform="translate(0 10.3)"/><text class="cls-84" y="10.3"> </text><path id="XMLID_130_" class="cls-1" d="M4373.9,2867.6C4201.7,3871,3248.7,4544.8,2245.3,4372.5S568.1,3247.3,740.4,2243.9,1865.6,566.8,2869,739,4546.2,1864.2,4373.9,2867.6Z" transform="translate(0 10.3)"/><text class="cls-84" y="10.3"> </text><rect class="cls-73" x="2557.1" y="896.8" width="38.8" height="38.8"/><rect class="cls-73" x="2557.1" y="858" width="38.8" height="38.8"/><rect class="cls-73" x="2557.1" y="819.2" width="38.8" height="38.8"/><rect class="cls-73" x="2557.1" y="780.3" width="38.8" height="38.8"/><rect class="cls-73" x="2557.1" y="742.4" width="38.8" height="38.8"/></g></svg>