<svg id="Layer_1" data-name="Layer 1" xmlns="http://www.w3.org/2000/svg" viewBox="0 0 50 50"><defs><style>.cls-1{fill:#fff;}</style></defs><title>Artboard 1</title><path class="cls-1" d="M7.42,48.5a2.75,2.75,0,0,1-2.74-2.74v-41A2.74,2.74,0,0,1,7.42,2a2.65,2.65,0,0,1,1.36.37L44.31,22.89a2.72,2.72,0,0,1,0,4.72L8.78,48.13A2.65,2.65,0,0,1,7.42,48.5Z"/><path d="M7.42,2.5h0a2.2,2.2,0,0,1,1.11.3L26.3,13.06,44.06,23.32a2.22,2.22,0,0,1,0,3.86L26.3,37.44,8.53,47.7a2.2,2.2,0,0,1-1.11.3,2.24,2.24,0,0,1-2.24-2.23v-41A2.24,2.24,0,0,1,7.42,2.5m0-1A3.24,3.24,0,0,0,4.18,4.73v41A3.22,3.22,0,0,0,9,48.56L26.8,38.3,44.56,28.05a3.23,3.23,0,0,0,0-5.6L26.8,12.2,9,1.94A3.2,3.2,0,0,0,7.42,1.5Z"/></svg>